{"asset":{"generator":"FBX2glTF v0.13.1","version":"2.0"},"scene":0,"buffers":[{"byteLength":6284988,"uri":"character.bin"}],"bufferViews":[{"buffer":0,"byteLength":1624,"byteOffset":0},{"buffer":0,"byteLength":4872,"byteOffset":1624},{"buffer":0,"byteLength":6496,"byteOffset":6496},{"buffer":0,"byteLength":4872,"byteOffset":12992},{"buffer":0,"byteLength":6496,"byteOffset":17864},{"buffer":0,"byteLength":6496,"byteOffset":24360},{"buffer":0,"byteLength":6496,"byteOffset":30856},{"buffer":0,"byteLength":6496,"byteOffset":37352},{"buffer":0,"byteLength":4872,"byteOffset":43848},{"buffer":0,"byteLength":6496,"byteOffset":48720},{"buffer":0,"byteLength":6496,"byteOffset":55216},{"buffer":0,"byteLength":6496,"byteOffset":61712},{"buffer":0,"byteLength":6496,"byteOffset":68208},{"buffer":0,"byteLength":4872,"byteOffset":74704},{"buffer":0,"byteLength":6496,"byteOffset":79576},{"buffer":0,"byteLength":6496,"byteOffset":86072},{"buffer":0,"byteLength":4872,"byteOffset":92568},{"buffer":0,"byteLength":6496,"byteOffset":97440},{"buffer":0,"byteLength":6496,"byteOffset":103936},{"buffer":0,"byteLength":4872,"byteOffset":110432},{"buffer":0,"byteLength":6496,"byteOffset":115304},{"buffer":0,"byteLength":4872,"byteOffset":121800},{"buffer":0,"byteLength":6496,"byteOffset":126672},{"buffer":0,"byteLength":6496,"byteOffset":133168},{"buffer":0,"byteLength":6496,"byteOffset":139664},{"buffer":0,"byteLength":4872,"byteOffset":146160},{"buffer":0,"byteLength":6496,"byteOffset":151032},{"buffer":0,"byteLength":4872,"byteOffset":157528},{"buffer":0,"byteLength":6496,"byteOffset":162400},{"buffer":0,"byteLength":6496,"byteOffset":168896},{"buffer":0,"byteLength":4872,"byteOffset":175392},{"buffer":0,"byteLength":6496,"byteOffset":180264},{"buffer":0,"byteLength":4872,"byteOffset":186760},{"buffer":0,"byteLength":6496,"byteOffset":191632},{"buffer":0,"byteLength":4872,"byteOffset":198128},{"buffer":0,"byteLength":6496,"byteOffset":203000},{"buffer":0,"byteLength":4872,"byteOffset":209496},{"buffer":0,"byteLength":6496,"byteOffset":214368},{"buffer":0,"byteLength":1248324,"byteOffset":220864,"target":34963},{"buffer":0,"byteLength":1031628,"byteOffset":1469188,"target":34962},{"buffer":0,"byteLength":1031628,"byteOffset":2500816,"target":34962},{"buffer":0,"byteLength":687752,"byteOffset":3532444,"target":34962},{"buffer":0,"byteLength":687752,"byteOffset":4220196,"target":34962},{"buffer":0,"byteLength":1375504,"byteOffset":4907948,"target":34962},{"buffer":0,"byteLength":1536,"byteOffset":6283452}],"scenes":[{"name":"Root Scene","nodes":[0]}],"accessors":[{"componentType":5126,"type":"SCALAR","count":406,"bufferView":0,"byteOffset":0,"min":[0.0],"max":[13.5]},{"componentType":5126,"type":"VEC3","count":406,"bufferView":1,"byteOffset":0},{"componentType":5126,"type":"VEC4","count":406,"bufferView":2,"byteOffset":0},{"componentType":5126,"type":"VEC3","count":406,"bufferView":3,"byteOffset":0},{"componentType":5126,"type":"VEC4","count":406,"bufferView":4,"byteOffset":0},{"componentType":5126,"type":"VEC4","count":406,"bufferView":5,"byteOffset":0},{"componentType":5126,"type":"VEC4","count":406,"bufferView":6,"byteOffset":0},{"componentType":5126,"type":"VEC4","count":406,"bufferView":7,"byteOffset":0},{"componentType":5126,"type":"VEC3","count":406,"bufferView":8,"byteOffset":0},{"componentType":5126,"type":"VEC4","count":406,"bufferView":9,"byteOffset":0},{"componentType":5126,"type":"VEC4","count":406,"bufferView":10,"byteOffset":0},{"componentType":5126,"type":"VEC4","count":406,"bufferView":11,"byteOffset":0},{"componentType":5126,"type":"VEC4","count":406,"bufferView":12,"byteOffset":0},{"componentType":5126,"type":"VEC3","count":406,"bufferView":13,"byteOffset":0},{"componentType":5126,"type":"VEC4","count":406,"bufferView":14,"byteOffset":0},{"componentType":5126,"type":"VEC4","count":406,"bufferView":15,"byteOffset":0},{"componentType":5126,"type":"VEC3","count":406,"bufferView":16,"byteOffset":0},{"componentType":5126,"type":"VEC4","count":406,"bufferView":17,"byteOffset":0},{"componentType":5126,"type":"VEC4","count":406,"bufferView":18,"byteOffset":0},{"componentType":5126,"type":"VEC3","count":406,"bufferView":19,"byteOffset":0},{"componentType":5126,"type":"VEC4","count":406,"bufferView":20,"byteOffset":0},{"componentType":5126,"type":"VEC3","count":406,"bufferView":21,"byteOffset":0},{"componentType":5126,"type":"VEC4","count":406,"bufferView":22,"byteOffset":0},{"componentType":5126,"type":"VEC4","count":406,"bufferView":23,"byteOffset":0},{"componentType":5126,"type":"VEC4","count":406,"bufferView":24,"byteOffset":0},{"componentType":5126,"type":"VEC3","count":406,"bufferView":25,"byteOffset":0},{"componentType":5126,"type":"VEC4","count":406,"bufferView":26,"byteOffset":0},{"componentType":5126,"type":"VEC3","count":406,"bufferView":27,"byteOffset":0},{"componentType":5126,"type":"VEC4","count":406,"bufferView":28,"byteOffset":0},{"componentType":5126,"type":"VEC4","count":406,"bufferView":29,"byteOffset":0},{"componentType":5126,"type":"VEC3","count":406,"bufferView":30,"byteOffset":0},{"componentType":5126,"type":"VEC4","count":406,"bufferView":31,"byteOffset":0},{"componentType":5126,"type":"VEC3","count":406,"bufferView":32,"byteOffset":0},{"componentType":5126,"type":"VEC4","count":406,"bufferView":33,"byteOffset":0},{"componentType":5126,"type":"VEC3","count":406,"bufferView":34,"byteOffset":0},{"componentType":5126,"type":"VEC4","count":406,"bufferView":35,"byteOffset":0},{"componentType":5126,"type":"VEC3","count":406,"bufferView":36,"byteOffset":0},{"componentType":5126,"type":"VEC4","count":406,"bufferView":37,"byteOffset":0},{"componentType":5125,"type":"SCALAR","count":312081,"bufferView":38,"byteOffset":0},{"componentType":5126,"type":"VEC3","count":85969,"bufferView":39,"byteOffset":0,"min":[-0.907030403614044,0.0,-0.393849551677704],"max":[0.907030403614044,2.04999971389771,0.393849551677704]},{"componentType":5126,"type":"VEC3","count":85969,"bufferView":40,"byteOffset":0},{"componentType":5126,"type":"VEC2","count":85969,"bufferView":41,"byteOffset":0},{"componentType":5123,"type":"VEC4","count":85969,"bufferView":42,"byteOffset":0},{"componentType":5126,"type":"VEC4","count":85969,"bufferView":43,"byteOffset":0},{"componentType":5126,"type":"MAT4","count":24,"bufferView":44,"byteOffset":0}],"images":[{"name":"texture_0.png","uri":"albedo.jpg"},{"name":"texture_0.png","uri":"albedo.jpg"}],"samplers":[{}],"textures":[{"name":"emission_color_texture","sampler":0,"source":0},{"name":"base_color_texture","sampler":0,"source":1}],"materials":[{"name":"Material_1","alphaMode":"BLEND","doubleSided":false,"extras":{"fromFBX":{"shadingModel":"Phong","isTruePBR":false}},"emissiveTexture":{"index":0,"texCoord":0},"emissiveFactor":[1.0,1.0,1.0],"pbrMetallicRoughness":{"baseColorTexture":{"index":1,"texCoord":0},"baseColorFactor":[1.0,1.0,1.0,1.0],"metallicFactor":0.400000005960464,"roughnessFactor":0.23312620818615}}],"meshes":[{"name":"char1","primitives":[{"material":0,"mode":4,"attributes":{"JOINTS_0":42,"NORMAL":40,"POSITION":39,"TEXCOORD_0":41,"WEIGHTS_0":43},"indices":38}]}],"skins":[{"joints":[2,3,4,5,6,7,8,9,10,11,12,13,14,15,16,17,18,19,20,21,22,23,24,25],"inverseBindMatrices":44,"skeleton":2},{"joints":[2,3,4,5,6,7,8,9,10,11,12,13,14,15,16,17,18,19,20,21,22,23,24,25]}],"animations":[{"name":"dance","channels":[{"sampler":0,"target":{"node":2,"path":"translation"}},{"sampler":1,"target":{"node":2,"path":"rotation"}},{"sampler":2,"target":{"node":3,"path":"translation"}},{"sampler":3,"target":{"node":3,"path":"rotation"}},{"sampler":4,"target":{"node":4,"path":"rotation"}},{"sampler":5,"target":{"node":5,"path":"rotation"}},{"sampler":6,"target":{"node":6,"path":"rotation"}},{"sampler":7,"target":{"node":7,"path":"translation"}},{"sampler":8,"target":{"node":7,"path":"rotation"}},{"sampler":9,"target":{"node":8,"path":"rotation"}},{"sampler":10,"target":{"node":9,"path":"rotation"}},{"sampler":11,"target":{"node":10,"path":"rotation"}},{"sampler":12,"target":{"node":11,"path":"translation"}},{"sampler":13,"target":{"node":11,"path":"rotation"}},{"sampler":14,"target":{"node":12,"path":"rotation"}},{"sampler":15,"target":{"node":13,"path":"translation"}},{"sampler":16,"target":{"node":13,"path":"rotation"}},{"sampler":17,"target":{"node":14,"path":"rotation"}},{"sampler":18,"target":{"node":15,"path":"translation"}},{"sampler":19,"target":{"node":15,"path":"rotation"}},{"sampler":20,"target":{"node":16,"path":"translation"}},{"sampler":21,"target":{"node":16,"path":"rotation"}},{"sampler":22,"target":{"node":17,"path":"rotation"}},{"sampler":23,"target":{"node":18,"path":"rotation"}},{"sampler":24,"target":{"node":19,"path":"translation"}},{"sampler":25,"target":{"node":19,"path":"rotation"}},{"sampler":26,"target":{"node":20,"path":"translation"}},{"sampler":27,"target":{"node":20,"path":"rotation"}},{"sampler":28,"target":{"node":21,"path":"rotation"}},{"sampler":29,"target":{"node":22,"path":"translation"}},{"sampler":30,"target":{"node":22,"path":"rotation"}},{"sampler":31,"target":{"node":23,"path":"translation"}},{"sampler":32,"target":{"node":23,"path":"rotation"}},{"sampler":33,"target":{"node":24,"path":"translation"}},{"sampler":34,"target":{"node":24,"path":"rotation"}},{"sampler":35,"target":{"node":25,"path":"translation"}},{"sampler":36,"target":{"node":25,"path":"rotation"}}],"samplers":[{"input":0,"interpolation":"LINEAR","output":1},{"input":0,"interpolation":"LINEAR","output":2},{"input":0,"interpolation":"LINEAR","output":3},{"input":0,"interpolation":"LINEAR","output":4},{"input":0,"interpolation":"LINEAR","output":5},{"input":0,"interpolation":"LINEAR","output":6},{"input":0,"interpolation":"LINEAR","output":7},{"input":0,"interpolation":"LINEAR","output":8},{"input":0,"interpolation":"LINEAR","output":9},{"input":0,"interpolation":"LINEAR","output":10},{"input":0,"interpolation":"LINEAR","output":11},{"input":0,"interpolation":"LINEAR","output":12},{"input":0,"interpolation":"LINEAR","output":13},{"input":0,"interpolation":"LINEAR","output":14},{"input":0,"interpolation":"LINEAR","output":15},{"input":0,"interpolation":"LINEAR","output":16},{"input":0,"interpolation":"LINEAR","output":17},{"input":0,"interpolation":"LINEAR","output":18},{"input":0,"interpolation":"LINEAR","output":19},{"input":0,"interpolation":"LINEAR","output":20},{"input":0,"interpolation":"LINEAR","output":21},{"input":0,"interpolation":"LINEAR","output":22},{"input":0,"interpolation":"LINEAR","output":23},{"input":0,"interpolation":"LINEAR","output":24},{"input":0,"interpolation":"LINEAR","output":25},{"input":0,"interpolation":"LINEAR","output":26},{"input":0,"interpolation":"LINEAR","output":27},{"input":0,"interpolation":"LINEAR","output":28},{"input":0,"interpolation":"LINEAR","output":29},{"input":0,"interpolation":"LINEAR","output":30},{"input":0,"interpolation":"LINEAR","output":31},{"input":0,"interpolation":"LINEAR","output":32},{"input":0,"interpolation":"LINEAR","output":33},{"input":0,"interpolation":"LINEAR","output":34},{"input":0,"interpolation":"LINEAR","output":35},{"input":0,"interpolation":"LINEAR","output":36},{"input":0,"interpolation":"LINEAR","output":37}]}],"nodes":[{"name":"RootNode","translation":[0.0,0.0,0.0],"rotation":[0.0,0.0,0.0,1.0],"scale":[1.0,1.0,1.0],"children":[1,26]},{"name":"Armature","translation":[0.0,0.0,0.0],"rotation":[-0.70710676908493,0.0,0.0,0.70710676908493],"scale":[1.0,1.0,1.0],"children":[2]},{"name":"Hips","translation":[0.0180290751159191,-0.0061053205281496,0.962177813053131],"rotation":[0.888833403587341,-0.202240452170372,-0.119739606976509,0.393365502357483],"scale":[1.00000011920929,1.00000011920929,1.00000035762787],"children":[3,7,11]},{"name":"LeftUpLeg","translation":[0.0823762565851212,-0.0543257929384708,0.0613749921321869],"rotation":[0.854085743427277,-0.043240986764431,-0.133533969521523,0.500835716724396],"scale":[1.00000011920929,1.00000011920929,1.0],"children":[4]},{"name":"LeftLeg","translation":[1.07288355977175E-08,0.363811016082764,-6.55651088976583E-09],"rotation":[0.271029531955719,0.00805523525923491,-0.0105639882385731,0.96247935295105],"scale":[0.99999988079071,0.999999582767487,0.99999988079071],"children":[5]},{"name":"LeftFoot","translation":[4.44089199923895E-18,0.34317210316658,5.96046378920079E-10],"rotation":[-0.469069451093674,-0.143735870718956,-0.0488523282110691,0.870015680789948],"scale":[0.99999988079071,1.00000023841858,1.0],"children":[6]},{"name":"LeftToeBase","translation":[2.08616257602046E-09,0.177060544490814,2.68220889942938E-09],"rotation":[-0.446999460458755,-0.0578224621713161,-0.00625918479636312,0.892641484737396],"scale":[1.00000011920929,0.999999821186066,0.999999940395355]},{"name":"RightUpLeg","translation":[-0.0721547231078148,-0.0434002093970776,0.0924943313002586],"rotation":[0.875346183776855,0.047419086098671,-0.128641843795776,0.463650465011597],"scale":[0.99999988079071,1.00000011920929,1.00000011920929],"children":[8]},{"name":"RightLeg","translation":[7.15255721317476E-09,0.367454260587692,-1.31130217795317E-08],"rotation":[0.239669874310493,-0.0121275801211596,0.00150487315841019,0.97077751159668],"scale":[1.00000011920929,1.0,1.0],"children":[9]},{"name":"RightFoot","translation":[-6.55651088976583E-09,0.343071281909943,-1.19209286886246E-09],"rotation":[-0.477482080459595,0.0283134151250124,0.0376867204904556,0.877376139163971],"scale":[0.99999988079071,1.00000011920929,1.00000023841858],"children":[10]},{"name":"RightToeBase","translation":[-5.96046412226769E-09,0.174556076526642,1.84774400224796E-08],"rotation":[-0.435080349445343,0.0581713616847992,0.00719252182170749,0.898481726646423],"scale":[0.999999940395355,1.00000011920929,0.99999988079071]},{"name":"Spine02","translation":[-0.0102215837687254,0.0977264940738678,-0.0819517821073532],"rotation":[-0.319405436515808,0.129619106650352,0.0345135591924191,0.938076674938202],"scale":[1.00000011920929,0.99999988079071,1.0],"children":[12]},{"name":"Spine01","translation":[-8.79168471357161E-09,0.12794928252697,-3.87430176829184E-09],"rotation":[0.0199547186493874,0.0090562840923667,-0.0388825982809067,0.999003469944],"scale":[1.0,1.0,1.0],"children":[13]},{"name":"Spine","translation":[-1.25169750120335E-08,0.12794902920723,4.17232515204091E-09],"rotation":[0.0589153580367565,-0.00983621459454298,0.00598648702725768,0.998196542263031],"scale":[1.00000023841858,1.00000011920929,1.00000011920929],"children":[14,18,22]},{"name":"LeftShoulder","translation":[0.0396031364798546,0.0200084522366524,0.00467232894152403],"rotation":[0.510567843914032,0.42657071352005,-0.389086872339249,0.637157201766968],"scale":[0.99999988079071,1.00000023841858,1.00000011920929],"children":[15]},{"name":"LeftArm","translation":[-1.90734859017994E-08,0.155545428395271,-1.68085094287562E-07],"rotation":[0.490502268075943,0.556593835353851,0.166678249835968,0.649483799934387],"scale":[1.00000023841858,1.00000011920929,1.00000011920929],"children":[16]},{"name":"LeftForeArm","translation":[-4.76837147544984E-09,0.241487517952919,-1.19209282445354E-08],"rotation":[-0.0412599854171276,-0.101984366774559,0.666361451148987,0.737468123435974],"scale":[1.0,1.00000011920929,1.00000023841858],"children":[17]},{"name":"LeftHand","translation":[-1.19209297988476E-09,0.239563435316086,-3.57627860658738E-09],"rotation":[0.380956679582596,0.168752491474152,0.0878258794546127,0.904810070991516],"scale":[1.00000011920929,1.00000023841858,1.0]},{"name":"RightShoulder","translation":[-0.040713619440794,0.0267787873744965,0.00602836348116398],"rotation":[0.476134955883026,-0.462232530117035,0.368892222642899,0.65081113576889],"scale":[1.00000011920929,1.00000047683716,1.00000023841858],"children":[19]},{"name":"RightArm","translation":[-2.38418573772492E-09,0.166790172457695,-7.74860353658369E-09],"rotation":[0.499739170074463,-0.581919193267822,-0.260595470666885,0.586277067661285],"scale":[1.0,1.00000011920929,1.00000011920929],"children":[20]},{"name":"RightForeArm","translation":[7.31646991880552E-08,0.206798642873764,1.90734859017994E-08],"rotation":[-0.0675545483827591,0.101360365748405,-0.558773934841156,0.820325613021851],"scale":[0.999999940395355,1.00000011920929,0.999999940395355],"children":[21]},{"name":"RightHand","translation":[-8.07642948075227E-08,0.25301456451416,-1.90734859017994E-08],"rotation":[0.0386596731841564,-0.381637036800385,-0.126483485102654,0.914800822734833],"scale":[1.0,1.00000011920929,1.00000011920929]},{"name":"neck","translation":[0.00111049169208854,0.126716136932373,-0.0107007510960102],"rotation":[-0.174684599041939,0.0404870882630348,0.0209283847361803,0.983569085597992],"scale":[1.00000011920929,1.0,1.00000011920929],"children":[23]},{"name":"Head","translation":[-1.78813930329369E-09,0.0820280835032463,-4.76837147544984E-09],"rotation":[0.46062445640564,0.0170741602778435,-0.0782826170325279,0.883971393108368],"scale":[1.00000011920929,1.00000011920929,1.0],"children":[24,25]},{"name":"head_end","translation":[-0.00416261190548539,0.400510430335999,-0.22052226960659],"rotation":[-0.249018117785454,-9.5229961516452E-06,0.00469460291787982,0.968487441539764],"scale":[1.00000011920929,1.00000011920929,1.00000011920929]},{"name":"headfront","translation":[0.00416261423379183,0.221003964543343,0.220522031188011],"rotation":[0.382132977247238,-1.10869596028351E-05,-0.00721218949183822,0.924079179763794],"scale":[0.999999940395355,1.00000011920929,1.00000011920929]},{"name":"char1","translation":[-6.28828971116491E-08,-1.31130217795317E-08,-4.76837147544984E-09],"rotation":[1.16416598583413E-10,-1.86264514923096E-09,1.11022302462516E-16,1.0],"scale":[0.99999988079071,1.0,1.0],"mesh":0,"skin":0}]}