{"asset":{"generator":"FBX2glTF v0.13.1","version":"2.0"},"scene":0,"scenes":[{"name":"Root Scene","nodes":[0]}],"nodes":[{"name":"RootNode","translation":[0,0,0],"rotation":[0,0,0,1],"scale":[1,1,1],"children":[1,26]},{"name":"Armature","translation":[0,0,0],"rotation":[-0.70710676908493,0,0,0.70710676908493],"scale":[1,1,1],"children":[2]},{"name":"Hips","translation":[-0.112833097577095,-0.0484058186411858,0.771445453166962],"rotation":[0.888827323913574,-0.363121300935745,-0.157440528273582,0.230957537889481],"scale":[1.00000035762787,1.00000011920929,0.999999582767487],"children":[3,7,11]},{"name":"LeftUpLeg","translation":[0.092873752117157,-0.0482063330709934,0.0731881707906723],"rotation":[0.391359657049179,0.11241339892149,-0.262295067310333,0.874872624874115],"scale":[1,1.00000047683716,1.00000035762787],"children":[4]},{"name":"LeftLeg","translation":[5.96046412226769e-9,0.380670040845871,5.48362706354055e-8],"rotation":[0.699154734611511,-0.0136714726686478,-0.0352111719548702,0.71397191286087],"scale":[0.999999940395355,1.00000023841858,1.00000035762787],"children":[5]},{"name":"LeftFoot","translation":[6.55651088976583e-9,0.319978892803192,-2.62260435590633e-8],"rotation":[-0.439278274774551,0.0401426292955875,0.130529269576073,0.887910604476929],"scale":[1.00000011920929,1,1],"children":[6]},{"name":"LeftToeBase","translation":[8.34465030408182e-9,0.154758855700493,-6.43730118099484e-8],"rotation":[-0.476816564798355,-0.0150759471580386,0.0100288297981024,0.878816306591034],"scale":[0.99999988079071,0.999999761581421,0.999999940395355]},{"name":"RightUpLeg","translation":[-0.0861356034874916,-0.0374916009604931,0.0951232239603996],"rotation":[0.616842746734619,0.122630089521408,0.150690272450447,0.762731492519379],"scale":[1,1.00000011920929,1],"children":[8]},{"name":"RightLeg","translation":[-2.38418573772492e-9,0.377717316150665,3.57627847336062e-8],"rotation":[0.711429715156555,-0.0149887055158615,0.0326440632343292,0.701838672161102],"scale":[1.00000011920929,1.00000023841858,1.00000047683716],"children":[9]},{"name":"RightFoot","translation":[-1.60932529524871e-8,0.328653991222382,5.96046378920079e-10],"rotation":[-0.70729523897171,0.125759929418564,-0.0949418768286705,0.689132750034332],"scale":[0.999999940395355,0.99999988079071,0.999999761581421],"children":[10]},{"name":"RightToeBase","translation":[-1.19209286886246e-9,0.151612892746925,8.0652533540615e-9],"rotation":[-0.460038244724274,-0.0250300392508507,0.0123061798512936,0.887460887432098],"scale":[1.00000023841858,0.999999940395355,1.00000023841858]},{"name":"Spine02","translation":[-0.00673819053918123,0.0856979191303253,-0.0787850394845009],"rotation":[-0.126830950379372,0.121385633945465,-0.0896690711379051,0.980376899242401],"scale":[0.999999940395355,0.999999821186066,0.999999940395355],"children":[12]},{"name":"Spine01","translation":[3.81469718035987e-8,0.116604804992676,-1.43051144263495e-8],"rotation":[-0.0167524460703135,-0.00367199908941984,-0.0485079288482666,0.998675525188446],"scale":[1,1.00000023841858,1.00000011920929],"children":[13]},{"name":"Spine","translation":[9.53674295089968e-9,0.116604685783386,-1.33514404865309e-7],"rotation":[0.0772101804614067,-0.00659897923469543,0.00462788669392467,0.996982276439667],"scale":[1.00000011920929,0.999999940395355,1],"children":[14,18,22]},{"name":"LeftShoulder","translation":[0.0403206832706928,0.0212624110281467,0.00450675003230572],"rotation":[0.345326840877533,0.466623038053513,-0.250015199184418,0.774922370910645],"scale":[1.00000023841858,1.00000023841858,1.00000023841858],"children":[15]},{"name":"LeftArm","translation":[-4.76837129781416e-8,0.159840956330299,1.90734859017994e-8],"rotation":[0.233112782239914,-0.594956934452057,0.207991629838943,0.740556657314301],"scale":[0.999999940395355,0.999999940395355,1.00000011920929],"children":[16]},{"name":"LeftForeArm","translation":[-1.04904174236253e-7,0.206296786665916,4.76837129781416e-8],"rotation":[-0.155055433511734,-0.175781905651093,0.0974982529878616,0.967239677906036],"scale":[0.999999940395355,1,1],"children":[17]},{"name":"LeftHand","translation":[-9.53674295089968e-9,0.203646585345268,-5.18560412388069e-8],"rotation":[-0.571113467216492,0.620981633663177,0.30795830488205,-0.43974182009697],"scale":[1.00000011920929,1.00000035762787,1.00000011920929]},{"name":"RightShoulder","translation":[-0.0391456037759781,0.0312406718730927,0.00376296043395996],"rotation":[0.437231987714767,-0.42036035656929,0.323896557092667,0.726096630096436],"scale":[0.999999940395355,0.99999988079071,1.00000011920929],"children":[19]},{"name":"RightArm","translation":[6.43730118099484e-8,0.159116148948669,-5.72204577053981e-8],"rotation":[0.373050808906555,0.339376866817474,-0.361239910125732,0.784322738647461],"scale":[0.99999988079071,0.999999940395355,0.999999821186066],"children":[20]},{"name":"RightForeArm","translation":[3.81469718035987e-8,0.194623365998268,-9.53674295089968e-9],"rotation":[-0.11167835444212,0.210777208209038,-0.630535185337067,0.738597512245178],"scale":[1,1.00000011920929,1],"children":[21]},{"name":"RightHand","translation":[-1.04904174236253e-7,0.212331384420395,-8.58306847817403e-8],"rotation":[-0.0932698994874954,-0.263489454984665,0.30593541264534,0.910097539424896],"scale":[1.00000011920929,1.00000011920929,1.00000023841858]},{"name":"neck","translation":[-0.00117510790005326,0.0734671652317047,-0.0082694673910737],"rotation":[0.0939133763313293,-0.047547023743391,-0.0255511403083801,0.994116067886353],"scale":[0.999999940395355,1.00000023841858,1.00000011920929],"children":[23]},{"name":"Head","translation":[0,0.0823500603437424,7.62939436071974e-8],"rotation":[0.278737157583237,0.0464909598231316,-0.110820353031158,0.95281845331192],"scale":[1.00000011920929,0.999999940395355,1],"children":[24,25]},{"name":"head_end","translation":[-0.00593969319015741,0.352489620447159,-0.139867454767227],"rotation":[-0.18773327767849,-2.36881874116079e-8,0.00797246396541595,0.982187688350677],"scale":[1,1.00000011920929,1.00000023841858]},{"name":"headfront","translation":[0.00593976024538279,0.154879838228226,0.139867410063744],"rotation":[0.358940243721008,7.54944551317749e-8,-0.0152429677546024,0.933236062526703],"scale":[1.00000011920929,1,1]},{"name":"char1","translation":[-3.21865059049742e-8,-8.70227694349524e-8,-4.76837147544984e-9],"rotation":[1.4432899320127e-15,0,-5.16987882845642e-24,1],"scale":[1,1,1]}],"buffers":[{"byteLength":21216,"uri":"crouch.bin"}],"bufferViews":[{"buffer":0,"byteLength":156,"byteOffset":0},{"buffer":0,"byteLength":468,"byteOffset":156},{"buffer":0,"byteLength":624,"byteOffset":624},{"buffer":0,"byteLength":468,"byteOffset":1248},{"buffer":0,"byteLength":624,"byteOffset":1716},{"buffer":0,"byteLength":624,"byteOffset":2340},{"buffer":0,"byteLength":624,"byteOffset":2964},{"buffer":0,"byteLength":624,"byteOffset":3588},{"buffer":0,"byteLength":468,"byteOffset":4212},{"buffer":0,"byteLength":624,"byteOffset":4680},{"buffer":0,"byteLength":624,"byteOffset":5304},{"buffer":0,"byteLength":468,"byteOffset":5928},{"buffer":0,"byteLength":624,"byteOffset":6396},{"buffer":0,"byteLength":624,"byteOffset":7020},{"buffer":0,"byteLength":468,"byteOffset":7644},{"buffer":0,"byteLength":624,"byteOffset":8112},{"buffer":0,"byteLength":624,"byteOffset":8736},{"buffer":0,"byteLength":624,"byteOffset":9360},{"buffer":0,"byteLength":468,"byteOffset":9984},{"buffer":0,"byteLength":624,"byteOffset":10452},{"buffer":0,"byteLength":468,"byteOffset":11076},{"buffer":0,"byteLength":624,"byteOffset":11544},{"buffer":0,"byteLength":624,"byteOffset":12168},{"buffer":0,"byteLength":624,"byteOffset":12792},{"buffer":0,"byteLength":468,"byteOffset":13416},{"buffer":0,"byteLength":624,"byteOffset":13884},{"buffer":0,"byteLength":624,"byteOffset":14508},{"buffer":0,"byteLength":624,"byteOffset":15132},{"buffer":0,"byteLength":468,"byteOffset":15756},{"buffer":0,"byteLength":624,"byteOffset":16224},{"buffer":0,"byteLength":468,"byteOffset":16848},{"buffer":0,"byteLength":624,"byteOffset":17316},{"buffer":0,"byteLength":468,"byteOffset":17940},{"buffer":0,"byteLength":624,"byteOffset":18408},{"buffer":0,"byteLength":468,"byteOffset":19032},{"buffer":0,"byteLength":624,"byteOffset":19500},{"buffer":0,"byteLength":468,"byteOffset":20124},{"buffer":0,"byteLength":624,"byteOffset":20592}],"accessors":[{"componentType":5126,"type":"SCALAR","count":39,"bufferView":0,"byteOffset":0,"min":[0],"max":[1.26666665077209]},{"componentType":5126,"type":"VEC3","count":39,"bufferView":1,"byteOffset":0},{"componentType":5126,"type":"VEC4","count":39,"bufferView":2,"byteOffset":0},{"componentType":5126,"type":"VEC3","count":39,"bufferView":3,"byteOffset":0},{"componentType":5126,"type":"VEC4","count":39,"bufferView":4,"byteOffset":0},{"componentType":5126,"type":"VEC4","count":39,"bufferView":5,"byteOffset":0},{"componentType":5126,"type":"VEC4","count":39,"bufferView":6,"byteOffset":0},{"componentType":5126,"type":"VEC4","count":39,"bufferView":7,"byteOffset":0},{"componentType":5126,"type":"VEC3","count":39,"bufferView":8,"byteOffset":0},{"componentType":5126,"type":"VEC4","count":39,"bufferView":9,"byteOffset":0},{"componentType":5126,"type":"VEC4","count":39,"bufferView":10,"byteOffset":0},{"componentType":5126,"type":"VEC3","count":39,"bufferView":11,"byteOffset":0},{"componentType":5126,"type":"VEC4","count":39,"bufferView":12,"byteOffset":0},{"componentType":5126,"type":"VEC4","count":39,"bufferView":13,"byteOffset":0},{"componentType":5126,"type":"VEC3","count":39,"bufferView":14,"byteOffset":0},{"componentType":5126,"type":"VEC4","count":39,"bufferView":15,"byteOffset":0},{"componentType":5126,"type":"VEC4","count":39,"bufferView":16,"byteOffset":0},{"componentType":5126,"type":"VEC4","count":39,"bufferView":17,"byteOffset":0},{"componentType":5126,"type":"VEC3","count":39,"bufferView":18,"byteOffset":0},{"componentType":5126,"type":"VEC4","count":39,"bufferView":19,"byteOffset":0},{"componentType":5126,"type":"VEC3","count":39,"bufferView":20,"byteOffset":0},{"componentType":5126,"type":"VEC4","count":39,"bufferView":21,"byteOffset":0},{"componentType":5126,"type":"VEC4","count":39,"bufferView":22,"byteOffset":0},{"componentType":5126,"type":"VEC4","count":39,"bufferView":23,"byteOffset":0},{"componentType":5126,"type":"VEC3","count":39,"bufferView":24,"byteOffset":0},{"componentType":5126,"type":"VEC4","count":39,"bufferView":25,"byteOffset":0},{"componentType":5126,"type":"VEC4","count":39,"bufferView":26,"byteOffset":0},{"componentType":5126,"type":"VEC4","count":39,"bufferView":27,"byteOffset":0},{"componentType":5126,"type":"VEC3","count":39,"bufferView":28,"byteOffset":0},{"componentType":5126,"type":"VEC4","count":39,"bufferView":29,"byteOffset":0},{"componentType":5126,"type":"VEC3","count":39,"bufferView":30,"byteOffset":0},{"componentType":5126,"type":"VEC4","count":39,"bufferView":31,"byteOffset":0},{"componentType":5126,"type":"VEC3","count":39,"bufferView":32,"byteOffset":0},{"componentType":5126,"type":"VEC4","count":39,"bufferView":33,"byteOffset":0},{"componentType":5126,"type":"VEC3","count":39,"bufferView":34,"byteOffset":0},{"componentType":5126,"type":"VEC4","count":39,"bufferView":35,"byteOffset":0},{"componentType":5126,"type":"VEC3","count":39,"bufferView":36,"byteOffset":0},{"componentType":5126,"type":"VEC4","count":39,"bufferView":37,"byteOffset":0}],"animations":[{"name":"crouch","channels":[{"sampler":0,"target":{"node":2,"path":"translation"}},{"sampler":1,"target":{"node":2,"path":"rotation"}},{"sampler":2,"target":{"node":3,"path":"translation"}},{"sampler":3,"target":{"node":3,"path":"rotation"}},{"sampler":4,"target":{"node":4,"path":"rotation"}},{"sampler":5,"target":{"node":5,"path":"rotation"}},{"sampler":6,"target":{"node":6,"path":"rotation"}},{"sampler":7,"target":{"node":7,"path":"translation"}},{"sampler":8,"target":{"node":7,"path":"rotation"}},{"sampler":9,"target":{"node":8,"path":"rotation"}},{"sampler":10,"target":{"node":9,"path":"translation"}},{"sampler":11,"target":{"node":9,"path":"rotation"}},{"sampler":12,"target":{"node":10,"path":"rotation"}},{"sampler":13,"target":{"node":11,"path":"translation"}},{"sampler":14,"target":{"node":11,"path":"rotation"}},{"sampler":15,"target":{"node":12,"path":"rotation"}},{"sampler":16,"target":{"node":13,"path":"rotation"}},{"sampler":17,"target":{"node":14,"path":"translation"}},{"sampler":18,"target":{"node":14,"path":"rotation"}},{"sampler":19,"target":{"node":15,"path":"translation"}},{"sampler":20,"target":{"node":15,"path":"rotation"}},{"sampler":21,"target":{"node":16,"path":"rotation"}},{"sampler":22,"target":{"node":17,"path":"rotation"}},{"sampler":23,"target":{"node":18,"path":"translation"}},{"sampler":24,"target":{"node":18,"path":"rotation"}},{"sampler":25,"target":{"node":19,"path":"rotation"}},{"sampler":26,"target":{"node":20,"path":"rotation"}},{"sampler":27,"target":{"node":21,"path":"translation"}},{"sampler":28,"target":{"node":21,"path":"rotation"}},{"sampler":29,"target":{"node":22,"path":"translation"}},{"sampler":30,"target":{"node":22,"path":"rotation"}},{"sampler":31,"target":{"node":23,"path":"translation"}},{"sampler":32,"target":{"node":23,"path":"rotation"}},{"sampler":33,"target":{"node":24,"path":"translation"}},{"sampler":34,"target":{"node":24,"path":"rotation"}},{"sampler":35,"target":{"node":25,"path":"translation"}},{"sampler":36,"target":{"node":25,"path":"rotation"}}],"samplers":[{"input":0,"interpolation":"LINEAR","output":1},{"input":0,"interpolation":"LINEAR","output":2},{"input":0,"interpolation":"LINEAR","output":3},{"input":0,"interpolation":"LINEAR","output":4},{"input":0,"interpolation":"LINEAR","output":5},{"input":0,"interpolation":"LINEAR","output":6},{"input":0,"interpolation":"LINEAR","output":7},{"input":0,"interpolation":"LINEAR","output":8},{"input":0,"interpolation":"LINEAR","output":9},{"input":0,"interpolation":"LINEAR","output":10},{"input":0,"interpolation":"LINEAR","output":11},{"input":0,"interpolation":"LINEAR","output":12},{"input":0,"interpolation":"LINEAR","output":13},{"input":0,"interpolation":"LINEAR","output":14},{"input":0,"interpolation":"LINEAR","output":15},{"input":0,"interpolation":"LINEAR","output":16},{"input":0,"interpolation":"LINEAR","output":17},{"input":0,"interpolation":"LINEAR","output":18},{"input":0,"interpolation":"LINEAR","output":19},{"input":0,"interpolation":"LINEAR","output":20},{"input":0,"interpolation":"LINEAR","output":21},{"input":0,"interpolation":"LINEAR","output":22},{"input":0,"interpolation":"LINEAR","output":23},{"input":0,"interpolation":"LINEAR","output":24},{"input":0,"interpolation":"LINEAR","output":25},{"input":0,"interpolation":"LINEAR","output":26},{"input":0,"interpolation":"LINEAR","output":27},{"input":0,"interpolation":"LINEAR","output":28},{"input":0,"interpolation":"LINEAR","output":29},{"input":0,"interpolation":"LINEAR","output":30},{"input":0,"interpolation":"LINEAR","output":31},{"input":0,"interpolation":"LINEAR","output":32},{"input":0,"interpolation":"LINEAR","output":33},{"input":0,"interpolation":"LINEAR","output":34},{"input":0,"interpolation":"LINEAR","output":35},{"input":0,"interpolation":"LINEAR","output":36},{"input":0,"interpolation":"LINEAR","output":37}]}]}
