{"asset":{"generator":"FBX2glTF v0.13.1","version":"2.0"},"scene":0,"scenes":[{"name":"Root Scene","nodes":[0]}],"nodes":[{"name":"RootNode","translation":[0,0,0],"rotation":[0,0,0,1],"scale":[1,1,1],"children":[1,26]},{"name":"Armature","translation":[0,0,0],"rotation":[-0.70710676908493,0,0,0.70710676908493],"scale":[1,1,1],"children":[2]},{"name":"Hips","translation":[-0.00479027256369591,-0.0157256126403809,0.133998796343803],"rotation":[0.90138041973114,0.223142355680466,0.0688648819923401,-0.364662110805511],"scale":[0.999999940395355,0.999999761581421,1.00000011920929],"children":[3,7,11]},{"name":"LeftUpLeg","translation":[0.0928737595677376,-0.0482063964009285,0.0731882974505424],"rotation":[0.530899584293365,-0.0459317155182362,-0.524774074554443,0.663813292980194],"scale":[1,1,1.00000011920929],"children":[4]},{"name":"LeftLeg","translation":[-1.19209286886246e-9,0.380670011043549,-2.29477876700912e-8],"rotation":[0.694064080715179,0.00804041605442762,-0.0375072509050369,0.71889054775238],"scale":[1.00000011920929,1.00000011920929,1.00000011920929],"children":[5]},{"name":"LeftFoot","translation":[-9.83476589055954e-9,0.319978952407837,-4.17232515204091e-9],"rotation":[-0.49729186296463,-0.167434886097908,0.0427065975964069,0.850201427936554],"scale":[1.00000011920929,1,1],"children":[6]},{"name":"LeftToeBase","translation":[-1.12503766303007e-8,0.154758840799332,5.77420000702489e-10],"rotation":[-0.510757148265839,-0.00985626503825188,0.0216371044516563,0.85939621925354],"scale":[0.999999940395355,0.999999821186066,0.999999940395355]},{"name":"RightUpLeg","translation":[-0.0861356109380722,-0.03749168664217,0.0951233580708504],"rotation":[0.448225349187851,0.047570489346981,0.770937979221344,0.449984163045883],"scale":[1.00000023841858,1.00000011920929,0.999999940395355],"children":[8]},{"name":"RightLeg","translation":[-3.57627860658738e-9,0.377717316150665,1.76276078178716e-8],"rotation":[0.444817036390305,-0.00304667209275067,0.0129754925146699,0.89552229642868],"scale":[1.00000035762787,1.00000011920929,1.00000023841858],"children":[9]},{"name":"RightFoot","translation":[2.38418573772492e-9,0.328654021024704,-4.05311588735913e-8],"rotation":[-0.30716872215271,0.0261289831250906,0.0783902108669281,0.948060989379883],"scale":[0.999999582767487,1,0.999999761581421],"children":[10]},{"name":"RightToeBase","translation":[2.38418573772492e-9,0.151612937450409,1.66147948732487e-8],"rotation":[-0.455973267555237,0.0211993083357811,-0.00907865073531866,0.889694631099701],"scale":[1,0.999999940395355,0.999999821186066]},{"name":"Spine02","translation":[-0.00673817144706845,0.0856978297233582,-0.0787850022315979],"rotation":[-0.275617122650146,0.088177777826786,-0.0304829012602568,0.956729173660278],"scale":[0.999999821186066,0.999999821186066,1.00000011920929],"children":[12]},{"name":"Spine01","translation":[-4.76837147544984e-9,0.116604782640934,-2.38418573772492e-9],"rotation":[-0.00759453233331442,0.0178534090518951,-0.00846950616687536,0.999775886535645],"scale":[0.999999940395355,1.00000011920929,1],"children":[13]},{"name":"Spine","translation":[-4.76837147544984e-9,0.116604574024677,1.77635679969558e-17],"rotation":[0.0644823908805847,0.000454253749921918,-0.0000277273138635792,0.997918725013733],"scale":[0.999999940395355,0.999999761581421,0.999999940395355],"children":[14,18,22]},{"name":"LeftShoulder","translation":[0.0403206907212734,0.0212624873965979,0.00450658798217773],"rotation":[0.485644787549973,0.352627128362656,-0.312116950750351,0.736468732357025],"scale":[1.00000023841858,1.00000023841858,1.00000035762787],"children":[15]},{"name":"LeftArm","translation":[-9.53674295089968e-9,0.159841015934944,-2.02655794367956e-8],"rotation":[0.248317420482635,-0.533609211444855,0.0145266242325306,0.808324575424194],"scale":[0.999999821186066,0.999999821186066,0.999999821186066],"children":[16]},{"name":"LeftForeArm","translation":[1.31130217795317e-8,0.206296756863594,-2.38418573772492e-9],"rotation":[-0.159544572234154,-0.265473186969757,0.633972227573395,0.708624541759491],"scale":[1,1.00000011920929,0.99999988079071],"children":[17]},{"name":"LeftHand","translation":[-1.66893006081636e-8,0.203646540641785,-2.38418564890708e-8],"rotation":[-0.178452104330063,0.219136700034142,0.12418794631958,0.951163113117218],"scale":[1.00000023841858,1.00000035762787,1.00000035762787]},{"name":"RightShoulder","translation":[-0.0391455739736557,0.0312406923621893,0.00376290548592806],"rotation":[0.155906602740288,-0.587003588676453,0.152331575751305,0.779689073562622],"scale":[1,0.999999940395355,1.00000011920929],"children":[19]},{"name":"RightArm","translation":[-5.51342971277791e-9,0.159116134047508,-8.86619044848658e-9],"rotation":[-0.0824126526713371,0.403020709753036,0.255177319049835,0.875024020671844],"scale":[0.99999988079071,0.999999940395355,0.99999988079071],"children":[20]},{"name":"RightForeArm","translation":[7.15255721317476e-9,0.19462326169014,7.74860353658369e-9],"rotation":[-0.113695740699768,0.180692315101624,-0.370221495628357,0.904079437255859],"scale":[1,0.99999988079071,1],"children":[21]},{"name":"RightHand","translation":[-3.06963912066749e-8,0.212331265211105,-9.53674295089968e-9],"rotation":[-0.148328244686127,-0.436602503061295,-0.112578302621841,0.880172193050385],"scale":[1,1.00000011920929,1.00000011920929]},{"name":"neck","translation":[-0.00117508403491229,0.0734671801328659,-0.0082694860175252],"rotation":[0.127308264374733,-0.0261597540229559,0.0392240099608898,0.990742027759552],"scale":[1.00000023841858,1.00000023841858,1.00000011920929],"children":[23]},{"name":"Head","translation":[1.43051144263495e-8,0.0823500156402588,4.76837129781416e-8],"rotation":[0.24445079267025,0.133112534880638,-0.0350401252508163,0.959842205047607],"scale":[1.00000011920929,1,1.00000011920929],"children":[24,25]},{"name":"head_end","translation":[-0.00593970296904445,0.352489680051804,-0.139867410063744],"rotation":[-0.18773327767849,-2.23699245793796e-8,0.00797246303409338,0.982187688350677],"scale":[0.999999761581421,1.00000023841858,1.00000011920929]},{"name":"headfront","translation":[0.00593972206115723,0.154879838228226,0.139867395162582],"rotation":[0.358940303325653,6.93700670240105e-8,-0.0152429267764091,0.933236062526703],"scale":[1,1.00000011920929,1.00000011920929]},{"name":"char1","translation":[-3.21865059049742e-8,-8.70227694349524e-8,-4.76837147544984e-9],"rotation":[1.4432899320127e-15,0,-5.16987882845642e-24,1],"scale":[1,1,1]}],"buffers":[{"byteLength":203872,"uri":"death.bin"}],"bufferViews":[{"buffer":0,"byteLength":2216,"byteOffset":0},{"buffer":0,"byteLength":6648,"byteOffset":2216},{"buffer":0,"byteLength":8864,"byteOffset":8864},{"buffer":0,"byteLength":8864,"byteOffset":17728},{"buffer":0,"byteLength":8864,"byteOffset":26592},{"buffer":0,"byteLength":8864,"byteOffset":35456},{"buffer":0,"byteLength":8864,"byteOffset":44320},{"buffer":0,"byteLength":8864,"byteOffset":53184},{"buffer":0,"byteLength":8864,"byteOffset":62048},{"buffer":0,"byteLength":8864,"byteOffset":70912},{"buffer":0,"byteLength":8864,"byteOffset":79776},{"buffer":0,"byteLength":8864,"byteOffset":88640},{"buffer":0,"byteLength":8864,"byteOffset":97504},{"buffer":0,"byteLength":8864,"byteOffset":106368},{"buffer":0,"byteLength":8864,"byteOffset":115232},{"buffer":0,"byteLength":8864,"byteOffset":124096},{"buffer":0,"byteLength":8864,"byteOffset":132960},{"buffer":0,"byteLength":8864,"byteOffset":141824},{"buffer":0,"byteLength":8864,"byteOffset":150688},{"buffer":0,"byteLength":8864,"byteOffset":159552},{"buffer":0,"byteLength":8864,"byteOffset":168416},{"buffer":0,"byteLength":8864,"byteOffset":177280},{"buffer":0,"byteLength":8864,"byteOffset":186144},{"buffer":0,"byteLength":8864,"byteOffset":195008}],"accessors":[{"componentType":5126,"type":"SCALAR","count":554,"bufferView":0,"byteOffset":0,"min":[0],"max":[18.4333324432373]},{"componentType":5126,"type":"VEC3","count":554,"bufferView":1,"byteOffset":0},{"componentType":5126,"type":"VEC4","count":554,"bufferView":2,"byteOffset":0},{"componentType":5126,"type":"VEC4","count":554,"bufferView":3,"byteOffset":0},{"componentType":5126,"type":"VEC4","count":554,"bufferView":4,"byteOffset":0},{"componentType":5126,"type":"VEC4","count":554,"bufferView":5,"byteOffset":0},{"componentType":5126,"type":"VEC4","count":554,"bufferView":6,"byteOffset":0},{"componentType":5126,"type":"VEC4","count":554,"bufferView":7,"byteOffset":0},{"componentType":5126,"type":"VEC4","count":554,"bufferView":8,"byteOffset":0},{"componentType":5126,"type":"VEC4","count":554,"bufferView":9,"byteOffset":0},{"componentType":5126,"type":"VEC4","count":554,"bufferView":10,"byteOffset":0},{"componentType":5126,"type":"VEC4","count":554,"bufferView":11,"byteOffset":0},{"componentType":5126,"type":"VEC4","count":554,"bufferView":12,"byteOffset":0},{"componentType":5126,"type":"VEC4","count":554,"bufferView":13,"byteOffset":0},{"componentType":5126,"type":"VEC4","count":554,"bufferView":14,"byteOffset":0},{"componentType":5126,"type":"VEC4","count":554,"bufferView":15,"byteOffset":0},{"componentType":5126,"type":"VEC4","count":554,"bufferView":16,"byteOffset":0},{"componentType":5126,"type":"VEC4","count":554,"bufferView":17,"byteOffset":0},{"componentType":5126,"type":"VEC4","count":554,"bufferView":18,"byteOffset":0},{"componentType":5126,"type":"VEC4","count":554,"bufferView":19,"byteOffset":0},{"componentType":5126,"type":"VEC4","count":554,"bufferView":20,"byteOffset":0},{"componentType":5126,"type":"VEC4","count":554,"bufferView":21,"byteOffset":0},{"componentType":5126,"type":"VEC4","count":554,"bufferView":22,"byteOffset":0},{"componentType":5126,"type":"VEC4","count":554,"bufferView":23,"byteOffset":0}],"animations":[{"name":"death","channels":[{"sampler":0,"target":{"node":2,"path":"translation"}},{"sampler":1,"target":{"node":2,"path":"rotation"}},{"sampler":2,"target":{"node":3,"path":"rotation"}},{"sampler":3,"target":{"node":4,"path":"rotation"}},{"sampler":4,"target":{"node":5,"path":"rotation"}},{"sampler":5,"target":{"node":6,"path":"rotation"}},{"sampler":6,"target":{"node":7,"path":"rotation"}},{"sampler":7,"target":{"node":8,"path":"rotation"}},{"sampler":8,"target":{"node":9,"path":"rotation"}},{"sampler":9,"target":{"node":10,"path":"rotation"}},{"sampler":10,"target":{"node":11,"path":"rotation"}},{"sampler":11,"target":{"node":12,"path":"rotation"}},{"sampler":12,"target":{"node":13,"path":"rotation"}},{"sampler":13,"target":{"node":14,"path":"rotation"}},{"sampler":14,"target":{"node":15,"path":"rotation"}},{"sampler":15,"target":{"node":16,"path":"rotation"}},{"sampler":16,"target":{"node":17,"path":"rotation"}},{"sampler":17,"target":{"node":18,"path":"rotation"}},{"sampler":18,"target":{"node":19,"path":"rotation"}},{"sampler":19,"target":{"node":20,"path":"rotation"}},{"sampler":20,"target":{"node":21,"path":"rotation"}},{"sampler":21,"target":{"node":22,"path":"rotation"}},{"sampler":22,"target":{"node":23,"path":"rotation"}}],"samplers":[{"input":0,"interpolation":"LINEAR","output":1},{"input":0,"interpolation":"LINEAR","output":2},{"input":0,"interpolation":"LINEAR","output":3},{"input":0,"interpolation":"LINEAR","output":4},{"input":0,"interpolation":"LINEAR","output":5},{"input":0,"interpolation":"LINEAR","output":6},{"input":0,"interpolation":"LINEAR","output":7},{"input":0,"interpolation":"LINEAR","output":8},{"input":0,"interpolation":"LINEAR","output":9},{"input":0,"interpolation":"LINEAR","output":10},{"input":0,"interpolation":"LINEAR","output":11},{"input":0,"interpolation":"LINEAR","output":12},{"input":0,"interpolation":"LINEAR","output":13},{"input":0,"interpolation":"LINEAR","output":14},{"input":0,"interpolation":"LINEAR","output":15},{"input":0,"interpolation":"LINEAR","output":16},{"input":0,"interpolation":"LINEAR","output":17},{"input":0,"interpolation":"LINEAR","output":18},{"input":0,"interpolation":"LINEAR","output":19},{"input":0,"interpolation":"LINEAR","output":20},{"input":0,"interpolation":"LINEAR","output":21},{"input":0,"interpolation":"LINEAR","output":22},{"input":0,"interpolation":"LINEAR","output":23}]}]}
