{"asset":{"generator":"FBX2glTF v0.13.1","version":"2.0"},"scene":0,"scenes":[{"name":"Root Scene","nodes":[0]}],"nodes":[{"name":"RootNode","translation":[0,0,0],"rotation":[0,0,0,1],"scale":[1,1,1],"children":[1,26]},{"name":"Armature","translation":[0,0,0],"rotation":[-0.70710676908493,0,0,0.70710676908493],"scale":[1,1,1],"children":[2]},{"name":"Hips","translation":[0.00904318317770958,-0.0600629448890686,0.809147000312805],"rotation":[0.834852933883667,-0.399361312389374,-0.241121932864189,0.292217969894409],"scale":[1.00000011920929,1,0.999999701976776],"children":[3,7,11]},{"name":"LeftUpLeg","translation":[0.0928737446665764,-0.0482063554227352,0.0731882080435753],"rotation":[0.46274071931839,0.181091889739037,-0.310899376869202,0.810196459293365],"scale":[0.999999940395355,1,0.999999940395355],"children":[4]},{"name":"LeftLeg","translation":[1.43051144263495e-8,0.380670011043549,-6.55651088976583e-9],"rotation":[0.672196447849274,-0.0149901583790779,-0.0357105024158955,0.739359140396118],"scale":[1.00000011920929,1.00000023841858,1.00000047683716],"children":[5]},{"name":"LeftFoot","translation":[-1.18464225096204e-8,0.319978952407837,2.11037693986782e-8],"rotation":[-0.462029069662094,-0.0127654299139977,0.103361681103706,0.880728423595428],"scale":[1,0.999999940395355,1],"children":[6]},{"name":"LeftToeBase","translation":[3.57627860658738e-9,0.154758885502815,2.29477876700912e-8],"rotation":[-0.462542533874512,-0.0149414809420705,0.00804615207016468,0.886434674263],"scale":[0.999999940395355,0.999999642372131,1]},{"name":"RightUpLeg","translation":[-0.0861356109380722,-0.0374916829168797,0.095123328268528],"rotation":[0.632024705410004,-0.0171780176460743,0.157017186284065,0.758679926395416],"scale":[1.00000011920929,0.999999940395355,1],"children":[8]},{"name":"RightLeg","translation":[1.90734859017994e-8,0.377717345952988,-3.93390635622382e-8],"rotation":[0.697487711906433,-0.00303253950551152,0.0306688584387302,0.715933740139008],"scale":[1.00000011920929,1.00000023841858,1.00000023841858],"children":[9]},{"name":"RightFoot","translation":[3.55271359939116e-17,0.328654050827026,1.01327897183978e-8],"rotation":[-0.599373757839203,-0.00893863290548325,-0.156731262803078,0.784924566745758],"scale":[0.99999988079071,1,0.999999940395355],"children":[10]},{"name":"RightToeBase","translation":[4.76837147544984e-9,0.151612907648087,1.10268594255558e-8],"rotation":[-0.456579953432083,0.0324783436954021,-0.00619785906746984,0.889067769050598],"scale":[0.99999988079071,0.999999701976776,1]},{"name":"Spine02","translation":[-0.00673819705843925,0.0856978893280029,-0.0787850543856621],"rotation":[-0.121486261487007,0.0561998747289181,-0.0259590093046427,0.990660786628723],"scale":[0.999999940395355,0.999999821186066,0.99999988079071],"children":[12]},{"name":"Spine01","translation":[1.66893006081636e-8,0.116604886949062,-4.52995294608627e-8],"rotation":[0.0239238645881414,0.00369427655823529,-0.0137060098350048,0.999612987041473],"scale":[0.999999940395355,1.00000023841858,1],"children":[13]},{"name":"Spine","translation":[2.38418564890708e-8,0.116604417562485,5.72204577053981e-8],"rotation":[0.0947008058428764,-0.00650471867993474,-0.00269557116553187,0.995480895042419],"scale":[1.00000011920929,1,1.00000011920929],"children":[14,18,22]},{"name":"LeftShoulder","translation":[0.0403206199407578,0.0212625544518232,0.00450630905106664],"rotation":[0.502412259578705,0.365337044000626,-0.349280893802643,0.701508104801178],"scale":[1.00000011920929,1.00000023841858,1.00000011920929],"children":[15]},{"name":"LeftArm","translation":[-1.19209286886246e-9,0.159841030836105,-3.21865059049742e-8],"rotation":[0.35661393404007,-0.33760529756546,0.158165663480759,0.85664039850235],"scale":[1.00000011920929,1,1.00000011920929],"children":[16]},{"name":"LeftForeArm","translation":[1.90734859017994e-8,0.20629671216011,-1.43051144263495e-8],"rotation":[-0.158090949058533,-0.255580365657806,0.594756841659546,0.745620667934418],"scale":[1,1.00000023841858,1],"children":[17]},{"name":"LeftHand","translation":[-2.29477876700912e-8,0.203646540641785,-9.53674295089968e-9],"rotation":[0.16537694633007,-0.685112416744232,-0.26703929901123,0.657237768173218],"scale":[1.00000035762787,1.00000035762787,1.00000011920929]},{"name":"RightShoulder","translation":[-0.0391456931829453,0.0312407817691565,0.0037626123521477],"rotation":[0.492763429880142,-0.395899713039398,0.409150809049606,0.658060193061829],"scale":[1,0.99999988079071,0.999999940395355],"children":[19]},{"name":"RightArm","translation":[-4.76837147544984e-9,0.159116089344025,1.43051144263495e-8],"rotation":[0.131485357880592,0.321007519960403,-0.650945007801056,0.675230622291565],"scale":[0.999999821186066,1,0.999999761581421],"children":[20]},{"name":"RightForeArm","translation":[1.90734859017994e-8,0.194623336195946,4.26173194512103e-8],"rotation":[-0.107350572943687,0.167065724730492,-0.30482006072998,0.931477129459381],"scale":[1,1,1],"children":[21]},{"name":"RightHand","translation":[2.38418564890708e-8,0.212331384420395,-1.90734859017994e-8],"rotation":[0.00216649495996535,-0.0975988432765007,0.148264899849892,0.98411750793457],"scale":[1,1.00000011920929,1]},{"name":"neck","translation":[-0.00117515563033521,0.0734672024846077,-0.00826962012797594],"rotation":[0.02771021053195,0.0871946066617966,0.163919568061829,0.982221782207489],"scale":[1.00000011920929,1,1],"children":[23]},{"name":"Head","translation":[-9.53674295089968e-9,0.0823500901460648,-8.10623177471825e-8],"rotation":[0.258674323558807,0.0240357499569654,-0.281689792871475,0.923667013645172],"scale":[1.00000011920929,1.00000011920929,1.00000011920929],"children":[24,25]},{"name":"head_end","translation":[-0.00593974813818932,0.352489620447159,-0.139867097139359],"rotation":[-0.187733262777328,-1.60706061791416e-8,0.00797244627028704,0.982187688350677],"scale":[0.999999701976776,1.00000011920929,1.00000011920929]},{"name":"headfront","translation":[0.00593969319015741,0.154879808425903,0.139867454767227],"rotation":[0.358940273523331,6.64151613705144e-8,-0.0152429696172476,0.933236062526703],"scale":[1,1.00000011920929,1]},{"name":"char1","translation":[-3.21865059049742e-8,-8.70227694349524e-8,-4.76837147544984e-9],"rotation":[1.4432899320127e-15,0,-5.16987882845642e-24,1],"scale":[1,1,1]}],"buffers":[{"byteLength":52392,"uri":"idle.bin"}],"bufferViews":[{"buffer":0,"byteLength":444,"byteOffset":0},{"buffer":0,"byteLength":1332,"byteOffset":444},{"buffer":0,"byteLength":1776,"byteOffset":1776},{"buffer":0,"byteLength":1332,"byteOffset":3552},{"buffer":0,"byteLength":1776,"byteOffset":4884},{"buffer":0,"byteLength":1776,"byteOffset":6660},{"buffer":0,"byteLength":1776,"byteOffset":8436},{"buffer":0,"byteLength":1776,"byteOffset":10212},{"buffer":0,"byteLength":1776,"byteOffset":11988},{"buffer":0,"byteLength":1776,"byteOffset":13764},{"buffer":0,"byteLength":1776,"byteOffset":15540},{"buffer":0,"byteLength":1776,"byteOffset":17316},{"buffer":0,"byteLength":1776,"byteOffset":19092},{"buffer":0,"byteLength":1776,"byteOffset":20868},{"buffer":0,"byteLength":1332,"byteOffset":22644},{"buffer":0,"byteLength":1776,"byteOffset":23976},{"buffer":0,"byteLength":1332,"byteOffset":25752},{"buffer":0,"byteLength":1776,"byteOffset":27084},{"buffer":0,"byteLength":1776,"byteOffset":28860},{"buffer":0,"byteLength":1776,"byteOffset":30636},{"buffer":0,"byteLength":1776,"byteOffset":32412},{"buffer":0,"byteLength":1332,"byteOffset":34188},{"buffer":0,"byteLength":1776,"byteOffset":35520},{"buffer":0,"byteLength":1776,"byteOffset":37296},{"buffer":0,"byteLength":1776,"byteOffset":39072},{"buffer":0,"byteLength":1776,"byteOffset":40848},{"buffer":0,"byteLength":1776,"byteOffset":42624},{"buffer":0,"byteLength":1776,"byteOffset":44400},{"buffer":0,"byteLength":1332,"byteOffset":46176},{"buffer":0,"byteLength":1776,"byteOffset":47508},{"buffer":0,"byteLength":1332,"byteOffset":49284},{"buffer":0,"byteLength":1776,"byteOffset":50616}],"accessors":[{"componentType":5126,"type":"SCALAR","count":111,"bufferView":0,"byteOffset":0,"min":[0],"max":[3.66666674613953]},{"componentType":5126,"type":"VEC3","count":111,"bufferView":1,"byteOffset":0},{"componentType":5126,"type":"VEC4","count":111,"bufferView":2,"byteOffset":0},{"componentType":5126,"type":"VEC3","count":111,"bufferView":3,"byteOffset":0},{"componentType":5126,"type":"VEC4","count":111,"bufferView":4,"byteOffset":0},{"componentType":5126,"type":"VEC4","count":111,"bufferView":5,"byteOffset":0},{"componentType":5126,"type":"VEC4","count":111,"bufferView":6,"byteOffset":0},{"componentType":5126,"type":"VEC4","count":111,"bufferView":7,"byteOffset":0},{"componentType":5126,"type":"VEC4","count":111,"bufferView":8,"byteOffset":0},{"componentType":5126,"type":"VEC4","count":111,"bufferView":9,"byteOffset":0},{"componentType":5126,"type":"VEC4","count":111,"bufferView":10,"byteOffset":0},{"componentType":5126,"type":"VEC4","count":111,"bufferView":11,"byteOffset":0},{"componentType":5126,"type":"VEC4","count":111,"bufferView":12,"byteOffset":0},{"componentType":5126,"type":"VEC4","count":111,"bufferView":13,"byteOffset":0},{"componentType":5126,"type":"VEC3","count":111,"bufferView":14,"byteOffset":0},{"componentType":5126,"type":"VEC4","count":111,"bufferView":15,"byteOffset":0},{"componentType":5126,"type":"VEC3","count":111,"bufferView":16,"byteOffset":0},{"componentType":5126,"type":"VEC4","count":111,"bufferView":17,"byteOffset":0},{"componentType":5126,"type":"VEC4","count":111,"bufferView":18,"byteOffset":0},{"componentType":5126,"type":"VEC4","count":111,"bufferView":19,"byteOffset":0},{"componentType":5126,"type":"VEC4","count":111,"bufferView":20,"byteOffset":0},{"componentType":5126,"type":"VEC3","count":111,"bufferView":21,"byteOffset":0},{"componentType":5126,"type":"VEC4","count":111,"bufferView":22,"byteOffset":0},{"componentType":5126,"type":"VEC4","count":111,"bufferView":23,"byteOffset":0},{"componentType":5126,"type":"VEC4","count":111,"bufferView":24,"byteOffset":0},{"componentType":5126,"type":"VEC4","count":111,"bufferView":25,"byteOffset":0},{"componentType":5126,"type":"VEC4","count":111,"bufferView":26,"byteOffset":0},{"componentType":5126,"type":"VEC4","count":111,"bufferView":27,"byteOffset":0},{"componentType":5126,"type":"VEC3","count":111,"bufferView":28,"byteOffset":0},{"componentType":5126,"type":"VEC4","count":111,"bufferView":29,"byteOffset":0},{"componentType":5126,"type":"VEC3","count":111,"bufferView":30,"byteOffset":0},{"componentType":5126,"type":"VEC4","count":111,"bufferView":31,"byteOffset":0}],"animations":[{"name":"idle","channels":[{"sampler":0,"target":{"node":2,"path":"translation"}},{"sampler":1,"target":{"node":2,"path":"rotation"}},{"sampler":2,"target":{"node":3,"path":"translation"}},{"sampler":3,"target":{"node":3,"path":"rotation"}},{"sampler":4,"target":{"node":4,"path":"rotation"}},{"sampler":5,"target":{"node":5,"path":"rotation"}},{"sampler":6,"target":{"node":6,"path":"rotation"}},{"sampler":7,"target":{"node":7,"path":"rotation"}},{"sampler":8,"target":{"node":8,"path":"rotation"}},{"sampler":9,"target":{"node":9,"path":"rotation"}},{"sampler":10,"target":{"node":10,"path":"rotation"}},{"sampler":11,"target":{"node":11,"path":"rotation"}},{"sampler":12,"target":{"node":12,"path":"rotation"}},{"sampler":13,"target":{"node":13,"path":"translation"}},{"sampler":14,"target":{"node":13,"path":"rotation"}},{"sampler":15,"target":{"node":14,"path":"translation"}},{"sampler":16,"target":{"node":14,"path":"rotation"}},{"sampler":17,"target":{"node":15,"path":"rotation"}},{"sampler":18,"target":{"node":16,"path":"rotation"}},{"sampler":19,"target":{"node":17,"path":"rotation"}},{"sampler":20,"target":{"node":18,"path":"translation"}},{"sampler":21,"target":{"node":18,"path":"rotation"}},{"sampler":22,"target":{"node":19,"path":"rotation"}},{"sampler":23,"target":{"node":20,"path":"rotation"}},{"sampler":24,"target":{"node":21,"path":"rotation"}},{"sampler":25,"target":{"node":22,"path":"rotation"}},{"sampler":26,"target":{"node":23,"path":"rotation"}},{"sampler":27,"target":{"node":24,"path":"translation"}},{"sampler":28,"target":{"node":24,"path":"rotation"}},{"sampler":29,"target":{"node":25,"path":"translation"}},{"sampler":30,"target":{"node":25,"path":"rotation"}}],"samplers":[{"input":0,"interpolation":"LINEAR","output":1},{"input":0,"interpolation":"LINEAR","output":2},{"input":0,"interpolation":"LINEAR","output":3},{"input":0,"interpolation":"LINEAR","output":4},{"input":0,"interpolation":"LINEAR","output":5},{"input":0,"interpolation":"LINEAR","output":6},{"input":0,"interpolation":"LINEAR","output":7},{"input":0,"interpolation":"LINEAR","output":8},{"input":0,"interpolation":"LINEAR","output":9},{"input":0,"interpolation":"LINEAR","output":10},{"input":0,"interpolation":"LINEAR","output":11},{"input":0,"interpolation":"LINEAR","output":12},{"input":0,"interpolation":"LINEAR","output":13},{"input":0,"interpolation":"LINEAR","output":14},{"input":0,"interpolation":"LINEAR","output":15},{"input":0,"interpolation":"LINEAR","output":16},{"input":0,"interpolation":"LINEAR","output":17},{"input":0,"interpolation":"LINEAR","output":18},{"input":0,"interpolation":"LINEAR","output":19},{"input":0,"interpolation":"LINEAR","output":20},{"input":0,"interpolation":"LINEAR","output":21},{"input":0,"interpolation":"LINEAR","output":22},{"input":0,"interpolation":"LINEAR","output":23},{"input":0,"interpolation":"LINEAR","output":24},{"input":0,"interpolation":"LINEAR","output":25},{"input":0,"interpolation":"LINEAR","output":26},{"input":0,"interpolation":"LINEAR","output":27},{"input":0,"interpolation":"LINEAR","output":28},{"input":0,"interpolation":"LINEAR","output":29},{"input":0,"interpolation":"LINEAR","output":30},{"input":0,"interpolation":"LINEAR","output":31}]}]}
