{"asset":{"generator":"FBX2glTF v0.13.1","version":"2.0"},"scene":0,"scenes":[{"name":"Root Scene","nodes":[0]}],"nodes":[{"name":"RootNode","translation":[0,0,0],"rotation":[0,0,0,1],"scale":[1,1,1],"children":[1,26]},{"name":"Armature","translation":[0,0,0],"rotation":[-0.70710676908493,0,0,0.70710676908493],"scale":[1,1,1],"children":[2]},{"name":"Hips","translation":[0.0223362967371941,-0.018114460632205,0.83504581451416],"rotation":[0.95279324054718,-0.0639111399650574,-0.0987948924303055,0.279892772436142],"scale":[1.00000023841858,0.99999988079071,0.999999582767487],"children":[3,7,11]},{"name":"LeftUpLeg","translation":[0.0928737595677376,-0.048206452280283,0.0731882303953171],"rotation":[0.641011476516724,0.0823655799031258,-0.167696297168732,0.744444847106934],"scale":[0.999999821186066,0.99999988079071,0.99999988079071],"children":[4]},{"name":"LeftLeg","translation":[-2.38418573772492e-9,0.380669981241226,-1.66893006081636e-8],"rotation":[0.861635386943817,0.0220659580081701,-0.110139667987823,0.494941264390945],"scale":[1,1.00000011920929,1.00000035762787],"children":[5]},{"name":"LeftFoot","translation":[3.0919908855509e-9,0.319978892803192,3.81469718035987e-8],"rotation":[-0.283910751342773,-0.0178258772939444,-0.0132108805701137,0.958593964576721],"scale":[1.00000011920929,0.999999940395355,1],"children":[6]},{"name":"LeftToeBase","translation":[2.45869147263988e-9,0.154758870601654,-1.43051144263495e-8],"rotation":[-0.34027823805809,0.0228272061794996,-0.0246177408844233,0.939725279808044],"scale":[0.99999988079071,0.999999582767487,0.999999761581421]},{"name":"RightUpLeg","translation":[-0.086135558784008,-0.0374918058514595,0.0951233953237534],"rotation":[0.851037204265594,0.0914153307676315,0.0136291058734059,0.516907274723053],"scale":[0.99999988079071,0.999999821186066,1.00000011920929],"children":[8]},{"name":"RightLeg","translation":[4.09781941712595e-9,0.377717316150665,-9.53674295089968e-9],"rotation":[0.375212460756302,-0.100594639778137,0.0169401131570339,0.921308517456055],"scale":[1.00000011920929,1.00000023841858,1.00000023841858],"children":[9]},{"name":"RightFoot","translation":[-2.08616257602046e-9,0.328654050827026,-3.09944141463347e-8],"rotation":[-0.430147647857666,-0.0589407980442047,0.0300659462809563,0.900330483913422],"scale":[0.999999642372131,0.999999821186066,0.999999761581421],"children":[10]},{"name":"RightToeBase","translation":[2.53319742959945e-9,0.151612892746925,1.04308126580577e-8],"rotation":[-0.570718467235565,0.0142689682543278,0.0127109941095114,0.820923447608948],"scale":[1.00000011920929,0.999999761581421,1.00000011920929]},{"name":"Spine02","translation":[-0.00673814630135894,0.0856977552175522,-0.0787850394845009],"rotation":[-0.281970709562302,0.17696151137352,-0.0138970017433167,0.942859470844269],"scale":[0.999999642372131,0.999999642372131,0.999999940395355],"children":[12]},{"name":"Spine01","translation":[-1.19209286886246e-9,0.116604842245579,5.63263888864185e-8],"rotation":[-0.0331230685114861,0.017630361020565,0.0103403925895691,0.99924224615097],"scale":[1.00000011920929,1.00000011920929,0.999999940395355],"children":[13]},{"name":"Spine","translation":[-2.02655794367956e-8,0.116604603827,-2.95042976716786e-8],"rotation":[-0.00911243632435799,0.00669722119346261,-0.00565484398975968,0.999920070171356],"scale":[0.99999988079071,1,0.999999761581421],"children":[14,18,22]},{"name":"LeftShoulder","translation":[0.0403207093477249,0.0212623681873083,0.00450663920491934],"rotation":[0.572224617004395,0.410058945417404,-0.498346984386444,0.506024658679962],"scale":[0.999999940395355,1.00000023841858,1],"children":[15]},{"name":"LeftArm","translation":[8.56816750882672e-9,0.159841001033783,-8.10623177471825e-8],"rotation":[0.480039685964584,0.468054622411728,-0.286195337772369,0.684528291225433],"scale":[0.999999821186066,0.99999988079071,0.999999821186066],"children":[16]},{"name":"LeftForeArm","translation":[4.1127204752911e-8,0.206296756863594,2.98023223876953e-8],"rotation":[-0.174645468592644,-0.160290196537971,0.387611240148544,0.890821814537048],"scale":[0.999999940395355,0.999999940395355,0.99999988079071],"children":[17]},{"name":"LeftHand","translation":[9.53674295089968e-9,0.203646525740623,2.38418564890708e-8],"rotation":[0.0890109837055206,-0.00937441922724247,0.0159148052334785,0.995859384536743],"scale":[0.99999988079071,1,1]},{"name":"RightShoulder","translation":[-0.039145577698946,0.0312406700104475,0.00376292038708925],"rotation":[0.529298961162567,-0.443941116333008,0.501706302165985,0.520624339580536],"scale":[1,1,0.999999821186066],"children":[19]},{"name":"RightArm","translation":[2.8610228852699e-8,0.159116119146347,7.15255721317476e-9],"rotation":[0.414508432149887,-0.0463059730827808,-0.11805585026741,0.901166617870331],"scale":[0.999999582767487,0.999999761581421,0.999999761581421],"children":[20]},{"name":"RightForeArm","translation":[-9.53674295089968e-9,0.194623336195946,-1.23977656585339e-7],"rotation":[-0.141906201839447,0.131188601255417,-0.588137984275818,0.785331666469574],"scale":[1.00000011920929,1,1.00000011920929],"children":[21]},{"name":"RightHand","translation":[-1.09672541270811e-7,0.212331399321556,-4.76837147544984e-9],"rotation":[-0.0853744298219681,0.128521531820297,-0.0426761135458946,0.987102925777435],"scale":[1,1,1.00000035762787]},{"name":"neck","translation":[-0.00117510312702507,0.0734670236706734,-0.00826943106949329],"rotation":[-0.0156553406268358,-0.0189120415598154,-0.00762793654575944,0.99966949224472],"scale":[1.00000011920929,1.00000023841858,1],"children":[23]},{"name":"Head","translation":[3.57627860658738e-9,0.0823502317070961,-8.70227765403797e-8],"rotation":[0.203998565673828,-0.049189317971468,0.0216418989002705,0.977495074272156],"scale":[1.00000023841858,1,1.00000011920929],"children":[24,25]},{"name":"head_end","translation":[-0.00593972112983465,0.352489531040192,-0.139867290854454],"rotation":[-0.195867255330086,-0.000666861946228892,0.00544242188334465,0.980615079402924],"scale":[0.999999701976776,1,1]},{"name":"headfront","translation":[0.0059397048316896,0.15487964451313,0.139867603778839],"rotation":[0.358940273523331,5.32106341211147e-8,-0.0152429975569248,0.933236062526703],"scale":[0.999999940395355,1,0.999999940395355]},{"name":"char1","translation":[-3.21865059049742e-8,-8.70227694349524e-8,-4.76837147544984e-9],"rotation":[1.4432899320127e-15,0,-5.16987882845642e-24,1],"scale":[1,1,1]}],"buffers":[{"byteLength":9120,"uri":"run.bin"}],"bufferViews":[{"buffer":0,"byteLength":80,"byteOffset":0},{"buffer":0,"byteLength":240,"byteOffset":80},{"buffer":0,"byteLength":320,"byteOffset":320},{"buffer":0,"byteLength":320,"byteOffset":640},{"buffer":0,"byteLength":320,"byteOffset":960},{"buffer":0,"byteLength":320,"byteOffset":1280},{"buffer":0,"byteLength":320,"byteOffset":1600},{"buffer":0,"byteLength":320,"byteOffset":1920},{"buffer":0,"byteLength":320,"byteOffset":2240},{"buffer":0,"byteLength":320,"byteOffset":2560},{"buffer":0,"byteLength":320,"byteOffset":2880},{"buffer":0,"byteLength":240,"byteOffset":3200},{"buffer":0,"byteLength":320,"byteOffset":3440},{"buffer":0,"byteLength":240,"byteOffset":3760},{"buffer":0,"byteLength":320,"byteOffset":4000},{"buffer":0,"byteLength":320,"byteOffset":4320},{"buffer":0,"byteLength":320,"byteOffset":4640},{"buffer":0,"byteLength":320,"byteOffset":4960},{"buffer":0,"byteLength":320,"byteOffset":5280},{"buffer":0,"byteLength":240,"byteOffset":5600},{"buffer":0,"byteLength":320,"byteOffset":5840},{"buffer":0,"byteLength":320,"byteOffset":6160},{"buffer":0,"byteLength":320,"byteOffset":6480},{"buffer":0,"byteLength":240,"byteOffset":6800},{"buffer":0,"byteLength":320,"byteOffset":7040},{"buffer":0,"byteLength":240,"byteOffset":7360},{"buffer":0,"byteLength":320,"byteOffset":7600},{"buffer":0,"byteLength":320,"byteOffset":7920},{"buffer":0,"byteLength":240,"byteOffset":8240},{"buffer":0,"byteLength":320,"byteOffset":8480},{"buffer":0,"byteLength":320,"byteOffset":8800}],"accessors":[{"componentType":5126,"type":"SCALAR","count":20,"bufferView":0,"byteOffset":0,"min":[0],"max":[0.633333325386047]},{"componentType":5126,"type":"VEC3","count":20,"bufferView":1,"byteOffset":0},{"componentType":5126,"type":"VEC4","count":20,"bufferView":2,"byteOffset":0},{"componentType":5126,"type":"VEC4","count":20,"bufferView":3,"byteOffset":0},{"componentType":5126,"type":"VEC4","count":20,"bufferView":4,"byteOffset":0},{"componentType":5126,"type":"VEC4","count":20,"bufferView":5,"byteOffset":0},{"componentType":5126,"type":"VEC4","count":20,"bufferView":6,"byteOffset":0},{"componentType":5126,"type":"VEC4","count":20,"bufferView":7,"byteOffset":0},{"componentType":5126,"type":"VEC4","count":20,"bufferView":8,"byteOffset":0},{"componentType":5126,"type":"VEC4","count":20,"bufferView":9,"byteOffset":0},{"componentType":5126,"type":"VEC4","count":20,"bufferView":10,"byteOffset":0},{"componentType":5126,"type":"VEC3","count":20,"bufferView":11,"byteOffset":0},{"componentType":5126,"type":"VEC4","count":20,"bufferView":12,"byteOffset":0},{"componentType":5126,"type":"VEC3","count":20,"bufferView":13,"byteOffset":0},{"componentType":5126,"type":"VEC4","count":20,"bufferView":14,"byteOffset":0},{"componentType":5126,"type":"VEC4","count":20,"bufferView":15,"byteOffset":0},{"componentType":5126,"type":"VEC4","count":20,"bufferView":16,"byteOffset":0},{"componentType":5126,"type":"VEC4","count":20,"bufferView":17,"byteOffset":0},{"componentType":5126,"type":"VEC4","count":20,"bufferView":18,"byteOffset":0},{"componentType":5126,"type":"VEC3","count":20,"bufferView":19,"byteOffset":0},{"componentType":5126,"type":"VEC4","count":20,"bufferView":20,"byteOffset":0},{"componentType":5126,"type":"VEC4","count":20,"bufferView":21,"byteOffset":0},{"componentType":5126,"type":"VEC4","count":20,"bufferView":22,"byteOffset":0},{"componentType":5126,"type":"VEC3","count":20,"bufferView":23,"byteOffset":0},{"componentType":5126,"type":"VEC4","count":20,"bufferView":24,"byteOffset":0},{"componentType":5126,"type":"VEC3","count":20,"bufferView":25,"byteOffset":0},{"componentType":5126,"type":"VEC4","count":20,"bufferView":26,"byteOffset":0},{"componentType":5126,"type":"VEC4","count":20,"bufferView":27,"byteOffset":0},{"componentType":5126,"type":"VEC3","count":20,"bufferView":28,"byteOffset":0},{"componentType":5126,"type":"VEC4","count":20,"bufferView":29,"byteOffset":0},{"componentType":5126,"type":"VEC4","count":20,"bufferView":30,"byteOffset":0}],"animations":[{"name":"run","channels":[{"sampler":0,"target":{"node":2,"path":"translation"}},{"sampler":1,"target":{"node":2,"path":"rotation"}},{"sampler":2,"target":{"node":3,"path":"rotation"}},{"sampler":3,"target":{"node":4,"path":"rotation"}},{"sampler":4,"target":{"node":5,"path":"rotation"}},{"sampler":5,"target":{"node":6,"path":"rotation"}},{"sampler":6,"target":{"node":7,"path":"rotation"}},{"sampler":7,"target":{"node":8,"path":"rotation"}},{"sampler":8,"target":{"node":9,"path":"rotation"}},{"sampler":9,"target":{"node":10,"path":"rotation"}},{"sampler":10,"target":{"node":11,"path":"translation"}},{"sampler":11,"target":{"node":11,"path":"rotation"}},{"sampler":12,"target":{"node":12,"path":"translation"}},{"sampler":13,"target":{"node":12,"path":"rotation"}},{"sampler":14,"target":{"node":13,"path":"rotation"}},{"sampler":15,"target":{"node":14,"path":"rotation"}},{"sampler":16,"target":{"node":15,"path":"rotation"}},{"sampler":17,"target":{"node":16,"path":"rotation"}},{"sampler":18,"target":{"node":17,"path":"translation"}},{"sampler":19,"target":{"node":17,"path":"rotation"}},{"sampler":20,"target":{"node":18,"path":"rotation"}},{"sampler":21,"target":{"node":19,"path":"rotation"}},{"sampler":22,"target":{"node":20,"path":"translation"}},{"sampler":23,"target":{"node":20,"path":"rotation"}},{"sampler":24,"target":{"node":21,"path":"translation"}},{"sampler":25,"target":{"node":21,"path":"rotation"}},{"sampler":26,"target":{"node":22,"path":"rotation"}},{"sampler":27,"target":{"node":23,"path":"translation"}},{"sampler":28,"target":{"node":23,"path":"rotation"}},{"sampler":29,"target":{"node":24,"path":"rotation"}}],"samplers":[{"input":0,"interpolation":"LINEAR","output":1},{"input":0,"interpolation":"LINEAR","output":2},{"input":0,"interpolation":"LINEAR","output":3},{"input":0,"interpolation":"LINEAR","output":4},{"input":0,"interpolation":"LINEAR","output":5},{"input":0,"interpolation":"LINEAR","output":6},{"input":0,"interpolation":"LINEAR","output":7},{"input":0,"interpolation":"LINEAR","output":8},{"input":0,"interpolation":"LINEAR","output":9},{"input":0,"interpolation":"LINEAR","output":10},{"input":0,"interpolation":"LINEAR","output":11},{"input":0,"interpolation":"LINEAR","output":12},{"input":0,"interpolation":"LINEAR","output":13},{"input":0,"interpolation":"LINEAR","output":14},{"input":0,"interpolation":"LINEAR","output":15},{"input":0,"interpolation":"LINEAR","output":16},{"input":0,"interpolation":"LINEAR","output":17},{"input":0,"interpolation":"LINEAR","output":18},{"input":0,"interpolation":"LINEAR","output":19},{"input":0,"interpolation":"LINEAR","output":20},{"input":0,"interpolation":"LINEAR","output":21},{"input":0,"interpolation":"LINEAR","output":22},{"input":0,"interpolation":"LINEAR","output":23},{"input":0,"interpolation":"LINEAR","output":24},{"input":0,"interpolation":"LINEAR","output":25},{"input":0,"interpolation":"LINEAR","output":26},{"input":0,"interpolation":"LINEAR","output":27},{"input":0,"interpolation":"LINEAR","output":28},{"input":0,"interpolation":"LINEAR","output":29},{"input":0,"interpolation":"LINEAR","output":30}]}]}
