{"asset":{"generator":"FBX2glTF v0.13.1","version":"2.0"},"scene":0,"scenes":[{"name":"Root Scene","nodes":[0]}],"nodes":[{"name":"RootNode","translation":[0,0,0],"rotation":[0,0,0,1],"scale":[1,1,1],"children":[1,26]},{"name":"Armature","translation":[0,0,0],"rotation":[-0.70710676908493,0,0,0.70710676908493],"scale":[1,1,1],"children":[2]},{"name":"Hips","translation":[0.00942406337708235,-0.051215335726738,0.884037852287292],"rotation":[0.942868530750275,-0.0282638091593981,-0.0518984124064445,0.327882081270218],"scale":[1,0.999999940395355,0.999999582767487],"children":[3,7,11]},{"name":"LeftUpLeg","translation":[0.092873752117157,-0.0482064299285412,0.0731882974505424],"rotation":[0.71141254901886,0.0148947974666953,-0.204935252666473,0.672065377235413],"scale":[0.99999988079071,0.999999821186066,0.999999940395355],"children":[4]},{"name":"LeftLeg","translation":[3.57627860658738e-9,0.380670011043549,-3.33786012163273e-8],"rotation":[0.51479297876358,0.0688359811902046,-0.00245296605862677,0.854543030261993],"scale":[1.00000011920929,1.00000023841858,1.00000011920929],"children":[5]},{"name":"LeftFoot","translation":[-2.38418573772492e-9,0.319979012012482,4.76837147544984e-9],"rotation":[-0.311332106590271,-0.0190310794860125,0.0506031922996044,0.948762059211731],"scale":[0.99999988079071,1.00000011920929,1.00000011920929],"children":[6]},{"name":"LeftToeBase","translation":[2.68220889942938e-9,0.154758855700493,-1.54972070731674e-8],"rotation":[-0.411009401082993,0.0156557392328978,-0.0186968613415956,0.911304891109467],"scale":[0.999999761581421,0.999999642372131,0.99999988079071]},{"name":"RightUpLeg","translation":[-0.086135596036911,-0.0374917052686214,0.0951233729720116],"rotation":[0.794229984283447,0.0627260282635689,0.0367287211120129,0.603253841400146],"scale":[1.00000023841858,0.99999988079071,1.00000011920929],"children":[8]},{"name":"RightLeg","translation":[1.19209286886246e-9,0.377717345952988,-3.81469718035987e-8],"rotation":[0.266860514879227,-0.0566292628645897,0.0283842198550701,0.961651146411896],"scale":[1.00000011920929,1.00000011920929,1.00000011920929],"children":[9]},{"name":"RightFoot","translation":[-3.57627860658738e-9,0.328654050827026,2.62260435590633e-8],"rotation":[-0.410512745380402,0.0311421118676662,-0.0282175745815039,0.910885989665985],"scale":[0.99999988079071,0.999999940395355,0.99999988079071],"children":[10]},{"name":"RightToeBase","translation":[-1.53761359200644e-8,0.151612892746925,-8.04662647624355e-9],"rotation":[-0.381701111793518,-0.0077331131324172,0.0258988216519356,0.92389053106308],"scale":[0.999999940395355,0.999999821186066,1]},{"name":"Spine02","translation":[-0.00673818029463291,0.0856978371739388,-0.0787849873304367],"rotation":[-0.333225429058075,0.0598735846579075,0.0184998232871294,0.940762281417847],"scale":[0.999999940395355,0.999999642372131,1.00000011920929],"children":[12]},{"name":"Spine01","translation":[2.60770316451442e-9,0.11660485714674,7.61472573884703e-9],"rotation":[0.0195909570902586,-0.0206843484193087,0.0116484304890037,0.99952620267868],"scale":[0.999999940395355,1.00000023841858,1],"children":[13]},{"name":"Spine","translation":[-2.98023217215615e-10,0.116604603827,1.30012631771592e-8],"rotation":[0.0283224862068892,-0.0216415096074343,0.00212981016375124,0.999362289905548],"scale":[0.99999988079071,1,1.00000011920929],"children":[14,18,22]},{"name":"LeftShoulder","translation":[0.0403206944465637,0.0212624743580818,0.00450659822672606],"rotation":[0.615868270397186,0.331425130367279,-0.535690069198608,0.473180532455444],"scale":[1,1.00000023841858,1.00000011920929],"children":[15]},{"name":"LeftArm","translation":[-1.90734859017994e-8,0.159840956330299,4.76837147544984e-9],"rotation":[0.463011682033539,0.269547909498215,0.158598333597183,0.829343497753143],"scale":[1,1,0.99999988079071],"children":[16]},{"name":"LeftForeArm","translation":[-3.33786012163273e-8,0.206296756863594,-1.13248823652157e-8],"rotation":[-0.1417256295681,-0.135734111070633,-0.117510609328747,0.973489284515381],"scale":[0.999999940395355,1,0.99999988079071],"children":[17]},{"name":"LeftHand","translation":[-2.8610228852699e-8,0.203646585345268,-3.81469718035987e-8],"rotation":[0.125883996486664,0.107319787144661,0.0333320908248425,0.98565948009491],"scale":[0.99999988079071,1.00000011920929,0.999999940395355]},{"name":"RightShoulder","translation":[-0.0391456037759781,0.03124057687819,0.00376297743059695],"rotation":[0.596182465553284,-0.351654857397079,0.548162162303925,0.469492942094803],"scale":[0.999999821186066,1,0.999999940395355],"children":[19]},{"name":"RightArm","translation":[9.53674295089968e-9,0.159116148948669,2.38418564890708e-8],"rotation":[0.379414588212967,-0.205630391836166,-0.211708128452301,0.876892447471619],"scale":[0.999999821186066,0.99999988079071,0.99999988079071],"children":[20]},{"name":"RightForeArm","translation":[9.53674295089968e-9,0.194623395800591,-1.90734859017994e-8],"rotation":[-0.091888852417469,0.0882696509361267,0.0127258347347379,0.991767585277557],"scale":[0.999999940395355,0.999999940395355,0.99999988079071],"children":[21]},{"name":"RightHand","translation":[9.53674295089968e-9,0.212331354618073,5.24520871181267e-8],"rotation":[0.0968402996659279,-0.0506079010665417,-0.0576212480664253,0.992340981960297],"scale":[1,1.00000011920929,1.00000035762787]},{"name":"neck","translation":[-0.00117510568816215,0.0734671503305435,-0.00826947391033173],"rotation":[-0.062601126730442,0.012915076687932,0.0118654863908887,0.997884511947632],"scale":[1.00000011920929,1,0.999999761581421],"children":[23]},{"name":"Head","translation":[-4.17232515204091e-9,0.082350067794323,1.21444463374587e-8],"rotation":[0.338632851839066,0.0288333538919687,-0.0375402271747589,0.939727187156677],"scale":[1.00000011920929,1,1.00000011920929],"children":[24,25]},{"name":"head_end","translation":[-0.00593971461057663,0.352489501237869,-0.139867320656776],"rotation":[-0.187858194112778,0.000507264281623065,0.010297816246748,0.98214203119278],"scale":[0.999999821186066,1,1]},{"name":"headfront","translation":[0.00593971181660891,0.154879704117775,0.139867499470711],"rotation":[0.358940243721008,5.97156954995626e-8,-0.0152429901063442,0.933236062526703],"scale":[0.999999821186066,1,1.00000011920929]},{"name":"char1","translation":[-3.21865059049742e-8,-8.70227694349524e-8,-4.76837147544984e-9],"rotation":[1.4432899320127e-15,0,-5.16987882845642e-24,1],"scale":[1,1,1]}],"buffers":[{"byteLength":13824,"uri":"walk.bin"}],"bufferViews":[{"buffer":0,"byteLength":128,"byteOffset":0},{"buffer":0,"byteLength":384,"byteOffset":128},{"buffer":0,"byteLength":512,"byteOffset":512},{"buffer":0,"byteLength":512,"byteOffset":1024},{"buffer":0,"byteLength":512,"byteOffset":1536},{"buffer":0,"byteLength":384,"byteOffset":2048},{"buffer":0,"byteLength":512,"byteOffset":2432},{"buffer":0,"byteLength":512,"byteOffset":2944},{"buffer":0,"byteLength":512,"byteOffset":3456},{"buffer":0,"byteLength":512,"byteOffset":3968},{"buffer":0,"byteLength":512,"byteOffset":4480},{"buffer":0,"byteLength":512,"byteOffset":4992},{"buffer":0,"byteLength":512,"byteOffset":5504},{"buffer":0,"byteLength":512,"byteOffset":6016},{"buffer":0,"byteLength":512,"byteOffset":6528},{"buffer":0,"byteLength":512,"byteOffset":7040},{"buffer":0,"byteLength":384,"byteOffset":7552},{"buffer":0,"byteLength":512,"byteOffset":7936},{"buffer":0,"byteLength":512,"byteOffset":8448},{"buffer":0,"byteLength":512,"byteOffset":8960},{"buffer":0,"byteLength":512,"byteOffset":9472},{"buffer":0,"byteLength":512,"byteOffset":9984},{"buffer":0,"byteLength":512,"byteOffset":10496},{"buffer":0,"byteLength":512,"byteOffset":11008},{"buffer":0,"byteLength":384,"byteOffset":11520},{"buffer":0,"byteLength":512,"byteOffset":11904},{"buffer":0,"byteLength":384,"byteOffset":12416},{"buffer":0,"byteLength":512,"byteOffset":12800},{"buffer":0,"byteLength":512,"byteOffset":13312}],"accessors":[{"componentType":5126,"type":"SCALAR","count":32,"bufferView":0,"byteOffset":0,"min":[0],"max":[1.03333330154419]},{"componentType":5126,"type":"VEC3","count":32,"bufferView":1,"byteOffset":0},{"componentType":5126,"type":"VEC4","count":32,"bufferView":2,"byteOffset":0},{"componentType":5126,"type":"VEC4","count":32,"bufferView":3,"byteOffset":0},{"componentType":5126,"type":"VEC4","count":32,"bufferView":4,"byteOffset":0},{"componentType":5126,"type":"VEC3","count":32,"bufferView":5,"byteOffset":0},{"componentType":5126,"type":"VEC4","count":32,"bufferView":6,"byteOffset":0},{"componentType":5126,"type":"VEC4","count":32,"bufferView":7,"byteOffset":0},{"componentType":5126,"type":"VEC4","count":32,"bufferView":8,"byteOffset":0},{"componentType":5126,"type":"VEC4","count":32,"bufferView":9,"byteOffset":0},{"componentType":5126,"type":"VEC4","count":32,"bufferView":10,"byteOffset":0},{"componentType":5126,"type":"VEC4","count":32,"bufferView":11,"byteOffset":0},{"componentType":5126,"type":"VEC4","count":32,"bufferView":12,"byteOffset":0},{"componentType":5126,"type":"VEC4","count":32,"bufferView":13,"byteOffset":0},{"componentType":5126,"type":"VEC4","count":32,"bufferView":14,"byteOffset":0},{"componentType":5126,"type":"VEC4","count":32,"bufferView":15,"byteOffset":0},{"componentType":5126,"type":"VEC3","count":32,"bufferView":16,"byteOffset":0},{"componentType":5126,"type":"VEC4","count":32,"bufferView":17,"byteOffset":0},{"componentType":5126,"type":"VEC4","count":32,"bufferView":18,"byteOffset":0},{"componentType":5126,"type":"VEC4","count":32,"bufferView":19,"byteOffset":0},{"componentType":5126,"type":"VEC4","count":32,"bufferView":20,"byteOffset":0},{"componentType":5126,"type":"VEC4","count":32,"bufferView":21,"byteOffset":0},{"componentType":5126,"type":"VEC4","count":32,"bufferView":22,"byteOffset":0},{"componentType":5126,"type":"VEC4","count":32,"bufferView":23,"byteOffset":0},{"componentType":5126,"type":"VEC3","count":32,"bufferView":24,"byteOffset":0},{"componentType":5126,"type":"VEC4","count":32,"bufferView":25,"byteOffset":0},{"componentType":5126,"type":"VEC3","count":32,"bufferView":26,"byteOffset":0},{"componentType":5126,"type":"VEC4","count":32,"bufferView":27,"byteOffset":0},{"componentType":5126,"type":"VEC4","count":32,"bufferView":28,"byteOffset":0}],"animations":[{"name":"walk","channels":[{"sampler":0,"target":{"node":2,"path":"translation"}},{"sampler":1,"target":{"node":2,"path":"rotation"}},{"sampler":2,"target":{"node":3,"path":"rotation"}},{"sampler":3,"target":{"node":4,"path":"rotation"}},{"sampler":4,"target":{"node":5,"path":"translation"}},{"sampler":5,"target":{"node":5,"path":"rotation"}},{"sampler":6,"target":{"node":6,"path":"rotation"}},{"sampler":7,"target":{"node":7,"path":"rotation"}},{"sampler":8,"target":{"node":8,"path":"rotation"}},{"sampler":9,"target":{"node":9,"path":"rotation"}},{"sampler":10,"target":{"node":10,"path":"rotation"}},{"sampler":11,"target":{"node":11,"path":"rotation"}},{"sampler":12,"target":{"node":12,"path":"rotation"}},{"sampler":13,"target":{"node":13,"path":"rotation"}},{"sampler":14,"target":{"node":14,"path":"rotation"}},{"sampler":15,"target":{"node":15,"path":"translation"}},{"sampler":16,"target":{"node":15,"path":"rotation"}},{"sampler":17,"target":{"node":16,"path":"rotation"}},{"sampler":18,"target":{"node":17,"path":"rotation"}},{"sampler":19,"target":{"node":18,"path":"rotation"}},{"sampler":20,"target":{"node":19,"path":"rotation"}},{"sampler":21,"target":{"node":20,"path":"rotation"}},{"sampler":22,"target":{"node":21,"path":"rotation"}},{"sampler":23,"target":{"node":22,"path":"translation"}},{"sampler":24,"target":{"node":22,"path":"rotation"}},{"sampler":25,"target":{"node":23,"path":"translation"}},{"sampler":26,"target":{"node":23,"path":"rotation"}},{"sampler":27,"target":{"node":24,"path":"rotation"}}],"samplers":[{"input":0,"interpolation":"LINEAR","output":1},{"input":0,"interpolation":"LINEAR","output":2},{"input":0,"interpolation":"LINEAR","output":3},{"input":0,"interpolation":"LINEAR","output":4},{"input":0,"interpolation":"LINEAR","output":5},{"input":0,"interpolation":"LINEAR","output":6},{"input":0,"interpolation":"LINEAR","output":7},{"input":0,"interpolation":"LINEAR","output":8},{"input":0,"interpolation":"LINEAR","output":9},{"input":0,"interpolation":"LINEAR","output":10},{"input":0,"interpolation":"LINEAR","output":11},{"input":0,"interpolation":"LINEAR","output":12},{"input":0,"interpolation":"LINEAR","output":13},{"input":0,"interpolation":"LINEAR","output":14},{"input":0,"interpolation":"LINEAR","output":15},{"input":0,"interpolation":"LINEAR","output":16},{"input":0,"interpolation":"LINEAR","output":17},{"input":0,"interpolation":"LINEAR","output":18},{"input":0,"interpolation":"LINEAR","output":19},{"input":0,"interpolation":"LINEAR","output":20},{"input":0,"interpolation":"LINEAR","output":21},{"input":0,"interpolation":"LINEAR","output":22},{"input":0,"interpolation":"LINEAR","output":23},{"input":0,"interpolation":"LINEAR","output":24},{"input":0,"interpolation":"LINEAR","output":25},{"input":0,"interpolation":"LINEAR","output":26},{"input":0,"interpolation":"LINEAR","output":27},{"input":0,"interpolation":"LINEAR","output":28}]}]}
