<svg xmlns="http://www.w3.org/2000/svg" width="768" height="1024" viewBox="0 0 768 1024" role="img" aria-label="Figurinha 55 aguardando imagem">
  <defs>
    <linearGradient id="sky" x1="0" x2="0" y1="0" y2="1">
      <stop offset="0" stop-color="#4fc3ff"/>
      <stop offset="0.48" stop-color="#96dc6b"/>
      <stop offset="1" stop-color="#f4c16e"/>
    </linearGradient>
  </defs>
  <rect width="768" height="1024" rx="42" fill="#fff8e8"/>
  <rect x="28" y="28" width="712" height="968" rx="34" fill="url(#sky)" stroke="#17351f" stroke-width="18"/>
  <rect x="72" y="650" width="624" height="196" rx="22" fill="#a95f2e"/>
  <circle cx="230" cy="390" r="104" fill="#f28b31" stroke="#17351f" stroke-width="14"/>
  <circle cx="500" cy="360" r="122" fill="#f7b447" stroke="#17351f" stroke-width="14"/>
  <circle cx="360" cy="552" r="132" fill="#ef6b38" stroke="#17351f" stroke-width="14"/>
  <circle cx="190" cy="350" r="20" fill="#fff"/>
  <circle cx="270" cy="350" r="20" fill="#fff"/>
  <circle cx="462" cy="320" r="22" fill="#fff"/>
  <circle cx="542" cy="320" r="22" fill="#fff"/>
  <path d="M162 438q68 54 136 0" fill="none" stroke="#17351f" stroke-width="16" stroke-linecap="round"/>
  <path d="M432 446q74 58 150 0" fill="none" stroke="#17351f" stroke-width="16" stroke-linecap="round"/>
  <path d="M270 632q92 78 184 0" fill="none" stroke="#17351f" stroke-width="18" stroke-linecap="round"/>
  <rect x="92" y="820" width="584" height="104" rx="28" fill="#17351f"/>
  <text x="384" y="884" fill="#fff8e8" font-family="Arial, sans-serif" font-size="46" font-weight="900" text-anchor="middle">FIGURINHA 55</text>
  <text x="384" y="940" fill="#f4d35e" font-family="Arial, sans-serif" font-size="30" font-weight="800" text-anchor="middle">imagem em breve</text>
</svg>
