{"asset":{"version":"2.0","generator":"gltfpack 1.2"},"extensionsUsed":["KHR_mesh_quantization","EXT_meshopt_compression"],"extensionsRequired":["KHR_mesh_quantization","EXT_meshopt_compression"],"buffers":[{"uri":"model.bin","byteLength":249668},{"byteLength":496656,"extensions":{"EXT_meshopt_compression":{"fallback":true}}}],"bufferViews":[{"buffer":1,"byteOffset":0,"byteLength":121944,"byteStride":4,"target":34962,"extensions":{"EXT_meshopt_compression":{"buffer":0,"byteOffset":0,"byteLength":89060,"byteStride":4,"mode":"ATTRIBUTES","count":30486}}},{"buffer":1,"byteOffset":121944,"byteLength":243888,"byteStride":8,"target":34962,"extensions":{"EXT_meshopt_compression":{"buffer":0,"byteOffset":89060,"byteLength":126507,"byteStride":8,"mode":"ATTRIBUTES","count":30486}}},{"buffer":1,"byteOffset":365832,"byteLength":130824,"target":34963,"extensions":{"EXT_meshopt_compression":{"buffer":0,"byteOffset":215568,"byteLength":34099,"byteStride":2,"mode":"TRIANGLES","count":65412}}}],"accessors":[{"bufferView":0,"byteOffset":0,"componentType":5120,"count":30486,"type":"VEC3","normalized":true},{"bufferView":1,"byteOffset":0,"componentType":5123,"count":30486,"type":"VEC3","min":[0,0,0],"max":[14982,14625,16383]},{"bufferView":2,"byteOffset":0,"componentType":5123,"count":65412,"type":"SCALAR"}],"samplers":[{}],"materials":[{"name":"DefaultMaterial","pbrMetallicRoughness":{"baseColorFactor":[0.5,0.5,0.5,1],"metallicFactor":0.200000003,"roughnessFactor":0.800000012}}],"meshes":[{"primitives":[{"attributes":{"NORMAL":0,"POSITION":1},"indices":2,"material":0}]}],"nodes":[{"mesh":0,"translation":[-0.00869165547,-0.00846967101,-0.00950722955],"scale":[1.15924831e-06,1.15924831e-06,1.15924831e-06]},{"name":"RootNode","translation":[0,0,0],"rotation":[0,0,0,1],"scale":[1,1,1],"children":[2]},{"name":"mesh_node","translation":[0,0,0],"rotation":[-0.707106769,0,0,0.707106769],"scale":[100,100,100],"children":[0]}],"scenes":[{"name":"Root Scene","nodes":[1]}],"scene":0}