{"asset":{"version":"2.0","generator":"gltfpack 1.2"},"extensionsUsed":["KHR_mesh_quantization","EXT_meshopt_compression"],"extensionsRequired":["KHR_mesh_quantization","EXT_meshopt_compression"],"buffers":[{"uri":"model.bin","byteLength":532888},{"byteLength":1357704,"extensions":{"EXT_meshopt_compression":{"fallback":true}}}],"bufferViews":[{"buffer":1,"byteOffset":0,"byteLength":265464,"byteStride":4,"target":34962,"extensions":{"EXT_meshopt_compression":{"buffer":0,"byteOffset":0,"byteLength":194550,"byteStride":4,"mode":"ATTRIBUTES","count":66366}}},{"buffer":1,"byteOffset":265464,"byteLength":530928,"byteStride":8,"target":34962,"extensions":{"EXT_meshopt_compression":{"buffer":0,"byteOffset":194552,"byteLength":265353,"byteStride":8,"mode":"ATTRIBUTES","count":66366}}},{"buffer":1,"byteOffset":796392,"byteLength":561312,"target":34963,"extensions":{"EXT_meshopt_compression":{"buffer":0,"byteOffset":459908,"byteLength":72977,"byteStride":4,"mode":"TRIANGLES","count":140328}}}],"accessors":[{"bufferView":0,"byteOffset":0,"componentType":5120,"count":66366,"type":"VEC3","normalized":true},{"bufferView":1,"byteOffset":0,"componentType":5123,"count":66366,"type":"VEC3","min":[0,0,0],"max":[16383,16358,15668]},{"bufferView":2,"byteOffset":0,"componentType":5125,"count":140328,"type":"SCALAR"}],"samplers":[{}],"materials":[{"name":"DefaultMaterial","pbrMetallicRoughness":{"baseColorFactor":[0.5,0.5,0.5,1],"metallicFactor":0.200000003,"roughnessFactor":0.800000012}}],"meshes":[{"primitives":[{"attributes":{"NORMAL":0,"POSITION":1},"indices":2,"material":0}]}],"nodes":[{"mesh":0,"translation":[-0.00950373244,-0.009471667,-0.00909391697],"scale":[1.15922808e-06,1.15922808e-06,1.15922808e-06]},{"name":"RootNode","translation":[0,0,0],"rotation":[0,0,0,1],"scale":[1,1,1],"children":[2]},{"name":"mesh_node","translation":[0,0,0],"rotation":[-0.707106769,0,0,0.707106769],"scale":[100,100,100],"children":[0]}],"scenes":[{"name":"Root Scene","nodes":[1]}],"scene":0}