{"asset":{"version":"2.0","generator":"gltfpack 1.2"},"extensionsUsed":["KHR_mesh_quantization","EXT_meshopt_compression"],"extensionsRequired":["KHR_mesh_quantization","EXT_meshopt_compression"],"buffers":[{"uri":"model.bin","byteLength":347228},{"byteLength":694152,"extensions":{"EXT_meshopt_compression":{"fallback":true}}}],"bufferViews":[{"buffer":1,"byteOffset":0,"byteLength":169924,"byteStride":4,"target":34962,"extensions":{"EXT_meshopt_compression":{"buffer":0,"byteOffset":0,"byteLength":126460,"byteStride":4,"mode":"ATTRIBUTES","count":42481}}},{"buffer":1,"byteOffset":169924,"byteLength":339848,"byteStride":8,"target":34962,"extensions":{"EXT_meshopt_compression":{"buffer":0,"byteOffset":126460,"byteLength":172462,"byteStride":8,"mode":"ATTRIBUTES","count":42481}}},{"buffer":1,"byteOffset":509772,"byteLength":184380,"target":34963,"extensions":{"EXT_meshopt_compression":{"buffer":0,"byteOffset":298924,"byteLength":48302,"byteStride":2,"mode":"TRIANGLES","count":92190}}}],"accessors":[{"bufferView":0,"byteOffset":0,"componentType":5120,"count":42481,"type":"VEC3","normalized":true},{"bufferView":1,"byteOffset":0,"componentType":5123,"count":42481,"type":"VEC3","min":[0,0,0],"max":[12140,10861,16383]},{"bufferView":2,"byteOffset":0,"componentType":5123,"count":92190,"type":"SCALAR"}],"samplers":[{}],"materials":[{"name":"DefaultMaterial","pbrMetallicRoughness":{"baseColorFactor":[0.5,0.5,0.5,1],"metallicFactor":0.200000003,"roughnessFactor":0.800000012}}],"meshes":[{"primitives":[{"attributes":{"NORMAL":0,"POSITION":1},"indices":2,"material":0}]}],"nodes":[{"mesh":0,"translation":[-0.00704912655,-0.00628374331,-0.00950804446],"scale":[1.1585621e-06,1.1585621e-06,1.1585621e-06]},{"name":"RootNode","translation":[0,0,0],"rotation":[0,0,0,1],"scale":[1,1,1],"children":[2]},{"name":"mesh_node","translation":[0,0,0],"rotation":[-0.707106769,0,0,0.707106769],"scale":[100,100,100],"children":[0]}],"scenes":[{"name":"Root Scene","nodes":[1]}],"scene":0}