<svg xmlns="http://www.w3.org/2000/svg" viewBox="0 0 960 540" role="img" aria-label="Brasfoot Online">
  <defs>
    <linearGradient id="sky" x1="0" y1="0" x2="1" y2="1">
      <stop offset="0" stop-color="#143f30"/>
      <stop offset="1" stop-color="#0d1d22"/>
    </linearGradient>
    <linearGradient id="field" x1="0" y1="0" x2="1" y2="0">
      <stop offset="0" stop-color="#2e8a4f"/>
      <stop offset=".5" stop-color="#3fb364"/>
      <stop offset="1" stop-color="#237343"/>
    </linearGradient>
  </defs>
  <rect width="960" height="540" fill="url(#sky)"/>
  <rect x="0" y="318" width="960" height="222" fill="url(#field)"/>
  <g fill="none" stroke="#d8f5dc" stroke-width="8" opacity=".72">
    <rect x="118" y="350" width="724" height="150" rx="8"/>
    <line x1="480" y1="350" x2="480" y2="500"/>
    <circle cx="480" cy="425" r="50"/>
    <rect x="118" y="382" width="88" height="86"/>
    <rect x="754" y="382" width="88" height="86"/>
  </g>
  <g transform="translate(104 76)">
    <rect x="0" y="0" width="752" height="220" rx="24" fill="#f5efe2"/>
    <rect x="34" y="34" width="260" height="152" rx="14" fill="#152c35"/>
    <rect x="328" y="38" width="378" height="26" rx="8" fill="#2f8852"/>
    <rect x="328" y="86" width="310" height="22" rx="7" fill="#89b87b"/>
    <rect x="328" y="130" width="350" height="22" rx="7" fill="#d4b85f"/>
    <rect x="328" y="172" width="240" height="22" rx="7" fill="#c45d4b"/>
    <text x="164" y="102" text-anchor="middle" font-family="Arial, sans-serif" font-size="44" font-weight="900" fill="#f7d36f">BRFUT</text>
    <text x="164" y="146" text-anchor="middle" font-family="Arial, sans-serif" font-size="24" font-weight="700" fill="#bfe6c8">ONLINE</text>
  </g>
  <g transform="translate(670 272)">
    <circle cx="64" cy="64" r="54" fill="#f7f7f7"/>
    <path d="M64 20 91 43 81 78H47L37 43Z" fill="#17272d"/>
    <path d="M20 64 42 47 47 78 28 92Z" fill="#17272d"/>
    <path d="M108 64 86 47 81 78 100 92Z" fill="#17272d"/>
  </g>
</svg>
